<svg width="27" height="27" viewBox="0 0 27 27" fill="none" xmlns="http://www.w3.org/2000/svg">
<path d="M24.8135 0.272461C25.918 0.272461 26.8135 1.16789 26.8135 2.27246V19.126C26.8135 20.2305 25.918 21.126 24.8135 21.126H20.1504C19.5667 21.126 19.0118 21.3811 18.6318 21.8242L15.0615 25.9902C14.2633 26.9212 12.8226 26.9213 12.0244 25.9902L8.4541 21.8242C8.07415 21.3811 7.51925 21.126 6.93555 21.126H2.27246C1.16789 21.126 0.272461 20.2305 0.272461 19.126V2.27246C0.272462 1.16789 1.16789 0.272461 2.27246 0.272461H24.8135ZM13.6475 4.27344C13.4218 4.24968 13.2078 4.30391 13.0059 4.43457C12.8159 4.56519 12.6732 4.74888 12.5781 4.98633L8.1416 15.6416C8.10597 15.7604 8.08789 15.8736 8.08789 15.9805C8.0879 16.2417 8.16496 16.4615 8.31934 16.6396C8.47376 16.8178 8.7115 16.9072 9.03223 16.9072C9.23414 16.9072 9.41867 16.8473 9.58496 16.7285C9.76291 16.5979 9.89347 16.4198 9.97656 16.1943L10.9004 14.0205H16.2148L17.1396 16.1768C17.2346 16.4022 17.3651 16.5804 17.5312 16.7109C17.7093 16.8415 17.9054 16.9072 18.1191 16.9072C18.3686 16.9072 18.5949 16.8121 18.7969 16.6221C19.0106 16.432 19.1172 16.1762 19.1172 15.8555C19.1172 15.7249 19.0877 15.5821 19.0283 15.4277L14.6445 4.98633C14.5614 4.76086 14.4252 4.58845 14.2354 4.46973C14.0573 4.33914 13.8611 4.27352 13.6475 4.27344ZM15.335 11.9717H11.7715L13.5449 7.7998L15.335 11.9717Z" fill="white" fill-opacity="0.8"/>
</svg>
