<svg width="9" height="14" viewBox="0 0 9 14" fill="none" xmlns="http://www.w3.org/2000/svg">
<path d="M1.20986 13.7098C1.11613 13.6169 1.04174 13.5063 0.990969 13.3844C0.940201 13.2625 0.914062 13.1318 0.914062 12.9998C0.914062 12.8678 0.940201 12.7371 0.990969 12.6152C1.04174 12.4934 1.11613 12.3828 1.20986 12.2898L5.78986 7.70982C5.88359 7.61685 5.95798 7.50625 6.00875 7.38439C6.05952 7.26253 6.08566 7.13183 6.08566 6.99982C6.08566 6.8678 6.05952 6.7371 6.00875 6.61524C5.95798 6.49338 5.88359 6.38278 5.78986 6.28982L1.20986 1.70982C1.11613 1.61685 1.04174 1.50625 0.990969 1.38439C0.940201 1.26253 0.914062 1.13183 0.914062 0.999816C0.914062 0.867804 0.940201 0.737098 0.990969 0.615239C1.04174 0.49338 1.11613 0.382779 1.20986 0.289816C1.39722 0.103565 1.65067 -0.000976562 1.91486 -0.000976562C2.17905 -0.000976562 2.4325 0.103565 2.61986 0.289816L7.20986 4.87982C7.77166 5.44232 8.08722 6.20481 8.08722 6.99982C8.08722 7.79482 7.77166 8.55731 7.20986 9.11982L2.61986 13.7098C2.4325 13.8961 2.17905 14.0006 1.91486 14.0006C1.65067 14.0006 1.39722 13.8961 1.20986 13.7098Z" fill="#808080"/>
</svg>
