<svg width="19" height="20" viewBox="0 0 19 20" fill="none" xmlns="http://www.w3.org/2000/svg">
<path d="M18.7961 11.3849L17.2127 5.68828C16.7486 4.01939 15.74 2.55352 14.3472 1.52367C12.9543 0.493823 11.2572 -0.0408992 9.52562 0.00450091C7.79399 0.049901 6.12724 0.672818 4.79028 1.77424C3.45333 2.87565 2.5229 4.39236 2.1469 6.08328L0.921062 11.5958C0.785659 12.2049 0.788789 12.8366 0.930223 13.4444C1.07166 14.0521 1.34778 14.6203 1.73821 15.1071C2.12865 15.5938 2.62341 15.9866 3.18599 16.2566C3.74856 16.5265 4.36458 16.6666 4.98856 16.6666H5.9169C6.10816 17.6085 6.61917 18.4553 7.36335 19.0636C8.10752 19.6718 9.0391 20.0041 10.0002 20.0041C10.9614 20.0041 11.8929 19.6718 12.6371 19.0636C13.3813 18.4553 13.8923 17.6085 14.0836 16.6666H14.7819C15.4242 16.6667 16.0579 16.5182 16.6334 16.2328C17.2088 15.9474 17.7105 15.5329 18.0992 15.0215C18.488 14.5101 18.7532 13.9158 18.8742 13.285C18.9953 12.6541 18.968 12.0039 18.7961 11.3849ZM10.0002 18.3333C9.48501 18.3311 8.98304 18.1699 8.56298 17.8715C8.14292 17.5732 7.8253 17.1524 7.65356 16.6666H12.3469C12.1752 17.1524 11.8575 17.5732 11.4375 17.8715C11.0174 18.1699 10.5154 18.3311 10.0002 18.3333ZM16.7719 14.0124C16.5397 14.3205 16.2388 14.5702 15.8932 14.7416C15.5476 14.913 15.1668 15.0015 14.7811 14.9999H4.98856C4.61422 14.9999 4.24466 14.9157 3.90718 14.7538C3.5697 14.5918 3.2729 14.3561 3.0387 14.064C2.80449 13.772 2.63886 13.4311 2.55403 13.0665C2.4692 12.7019 2.46733 12.3229 2.54856 11.9574L3.77356 6.44411C4.06886 5.11595 4.79965 3.92462 5.84978 3.05949C6.8999 2.19436 8.20908 1.70509 9.56921 1.66946C10.9293 1.63383 12.2623 2.05388 13.3563 2.86284C14.4503 3.6718 15.2425 4.82323 15.6069 6.13411L17.1902 11.8308C17.2948 12.2019 17.3115 12.5923 17.2389 12.9711C17.1663 13.3498 17.0064 13.7063 16.7719 14.0124Z" fill="#4D4D4D"/>
</svg>
