<svg width="21" height="20" viewBox="0 0 21 20" fill="none" xmlns="http://www.w3.org/2000/svg">
<g clip-path="url(#clip0_1_829)">
<path d="M18.2468 3.32375C18.2468 2.5948 17.6559 2.00391 16.9269 2.00391H1.85895C1.13008 2.00391 0.539062 2.59484 0.539062 3.32375V18.3916C0.539062 18.7689 0.697617 19.1089 0.951406 19.3495H16.9269V19.7115H19.2389C19.8069 19.7115 20.2911 19.3526 20.4772 18.8492C20.6314 18.4416 20.686 19.2209 18.2468 3.32375Z" fill="#BABABA"/>
<path d="M19.0529 18.3917V8.57684L18.2469 3.32375C18.2469 2.5948 17.656 2.00391 16.927 2.00391H2.6651C1.93623 2.00391 1.34521 2.5948 1.34521 3.32375V18.3916C1.34521 18.7689 1.50377 19.1089 1.75756 19.3495H16.9271V19.7115H17.7331C18.4619 19.7116 19.0529 19.1207 19.0529 18.3917Z" fill="#A8A8A8"/>
<path d="M16.9269 2.00391H1.85895C1.13008 2.00391 0.539062 2.59484 0.539062 3.32375V18.3916C0.539062 19.1206 1.13008 19.7115 1.85895 19.7115H16.9269C17.6558 19.7115 18.2468 19.1206 18.2468 18.3916V3.32375C18.2468 2.59484 17.6558 2.00391 16.9269 2.00391Z" fill="#E6E6E6"/>
<path d="M1.34504 18.3917V3.32375C1.34504 2.5948 1.93605 2.00391 2.66492 2.00391H1.85895C1.13008 2.00391 0.539062 2.59484 0.539062 3.32375V18.3916C0.539062 19.1206 1.13008 19.7115 1.85895 19.7115H2.66492C1.93609 19.7116 1.34504 19.1207 1.34504 18.3917Z" fill="#CCCBCA"/>
<path d="M16.9269 2.00391H1.85895C1.13008 2.00391 0.539062 2.59484 0.539062 3.32375V6.71422H18.2468V3.32375C18.2468 2.59484 17.6558 2.00391 16.9269 2.00391Z" fill="#EA473B"/>
<path d="M1.34504 3.32375C1.34504 2.5948 1.93605 2.00391 2.66492 2.00391H1.85895C1.13008 2.00391 0.539062 2.59484 0.539062 3.32375V6.71422H1.34504V3.32375Z" fill="#D63322"/>
<path d="M14.6735 3.1839V3.45866C14.6735 3.72577 14.457 3.74077 14.1899 3.74077H14.0287C13.7616 3.74077 13.5451 3.72577 13.5451 3.45866V3.18394C13.2894 3.36238 13.122 3.65855 13.122 3.99402C13.122 4.53933 13.564 4.98136 14.1093 4.98136C15.0764 4.98132 15.4605 3.73312 14.6735 3.1839ZM9.67637 3.1839V3.45866C9.67637 3.72577 9.45988 3.70046 9.19278 3.70046H9.03156C8.76449 3.70046 8.54797 3.72577 8.54797 3.45866V3.18394C8.29227 3.36238 8.12481 3.65855 8.12481 3.99402C8.12481 4.53933 8.56688 4.98136 9.11215 4.98136C9.65746 4.98136 10.0995 4.53933 10.0995 3.99402C10.0995 3.65855 9.93203 3.36234 9.67637 3.1839ZM4.67922 3.1839V3.45866C4.67922 3.77007 4.38613 3.74077 4.03442 3.74077C3.76735 3.74077 3.55082 3.72577 3.55082 3.45866V3.18394C2.76305 3.7337 3.14918 4.98136 4.115 4.98136C4.66031 4.98136 5.10235 4.53933 5.10235 3.99402C5.10235 3.65855 4.93488 3.36234 4.67922 3.1839Z" fill="#414356"/>
<path d="M13.9681 3.99404C13.9681 3.97533 13.9688 3.95681 13.9698 3.93837C13.7304 3.90935 13.5449 3.70587 13.5449 3.45869V3.18396C13.2892 3.3624 13.1217 3.65857 13.1217 3.99404C13.1217 4.53935 13.5638 4.98138 14.1091 4.98138C14.2605 4.98138 14.404 4.9472 14.5322 4.88623C14.1987 4.72775 13.9681 4.38787 13.9681 3.99404ZM8.97092 3.99404C8.97092 3.97533 8.97162 3.95681 8.97264 3.93837C8.7333 3.90935 8.54775 3.70587 8.54775 3.45869V3.18396C8.29205 3.3624 8.12459 3.65857 8.12459 3.99404C8.12459 4.53935 8.56666 4.98138 9.11193 4.98138C9.26338 4.98138 9.40682 4.9472 9.5351 4.88623C9.20154 4.72775 8.97092 4.38787 8.97092 3.99404ZM3.97549 3.93837C3.73615 3.90935 3.55061 3.70587 3.55061 3.45869V3.18396C3.2949 3.3624 3.12744 3.65857 3.12744 3.99404C3.12744 4.72123 3.88697 5.19556 4.53791 4.88623C4.18424 4.71814 3.9526 4.35076 3.97549 3.93837Z" fill="#2F3242"/>
<path d="M0.539062 6.71405H18.2469V7.84245H0.539062V6.71405Z" fill="#F77C79"/>
<path d="M0.539062 6.71405H1.34504V7.84245H0.539062V6.71405Z" fill="#DD6464"/>
<path d="M4.19559 0.288452C4.4627 0.288452 4.67918 0.504976 4.67918 0.772046V3.45869C4.67918 3.7258 4.4627 3.94228 4.19559 3.94228H4.03437C3.7673 3.94228 3.55078 3.7258 3.55078 3.45869V0.772046C3.55078 0.504976 3.7673 0.288452 4.03437 0.288452H4.19559ZM9.19273 0.288452C9.45984 0.288452 9.67633 0.504976 9.67633 0.772046V3.45869C9.67633 3.7258 9.45984 3.94228 9.19273 3.94228H9.03152C8.76445 3.94228 8.54793 3.7258 8.54793 3.45869V0.772046C8.54793 0.504976 8.76445 0.288452 9.03152 0.288452H9.19273ZM14.1899 0.288452C14.457 0.288452 14.6735 0.504976 14.6735 0.772046V3.45869C14.6735 3.7258 14.457 3.94228 14.1899 3.94228H14.0287C13.7616 3.94228 13.5451 3.7258 13.5451 3.45869V0.772046C13.5451 0.504976 13.7616 0.288452 14.0287 0.288452H14.1899Z" fill="#585A60"/>
<path d="M4.19559 0.288452C4.4627 0.288452 4.67918 0.504976 4.67918 0.772046V3.45869C4.67918 3.7258 4.4627 3.94228 4.19559 3.94228H4.03437C3.7673 3.94228 3.55078 3.7258 3.55078 3.45869V0.772046C3.55078 0.504976 3.7673 0.288452 4.03437 0.288452H4.19559ZM9.19273 0.288452C9.45984 0.288452 9.67633 0.504976 9.67633 0.772046V3.45869C9.67633 3.7258 9.45984 3.94228 9.19273 3.94228H9.03152C8.76445 3.94228 8.54793 3.7258 8.54793 3.45869V0.772046C8.54793 0.504976 8.76445 0.288452 9.03152 0.288452H9.19273ZM14.1899 0.288452C14.457 0.288452 14.6735 0.504976 14.6735 0.772046V3.45869C14.6735 3.7258 14.457 3.94228 14.1899 3.94228H14.0287C13.7616 3.94228 13.5451 3.7258 13.5451 3.45869V0.772046C13.5451 0.504976 13.7616 0.288452 14.0287 0.288452H14.1899Z" fill="#585A60"/>
<path d="M4.11496 3.45869V0.772046C4.11496 0.576968 4.23074 0.409312 4.39707 0.332827C4.33391 0.303644 4.26517 0.288504 4.19559 0.288452H4.03437C3.7673 0.288452 3.55078 0.504976 3.55078 0.772046V3.45869C3.55078 3.7258 3.7673 3.94228 4.03437 3.94228H4.19559C4.26762 3.94228 4.3357 3.92611 4.39707 3.89791C4.23074 3.82146 4.11496 3.65376 4.11496 3.45869ZM9.11211 3.45869V0.772046C9.11211 0.576968 9.22789 0.409312 9.39422 0.332827C9.33106 0.303644 9.26231 0.288504 9.19273 0.288452H9.03152C8.76445 0.288452 8.54793 0.504976 8.54793 0.772046V3.45869C8.54793 3.7258 8.76445 3.94228 9.03152 3.94228H9.19273C9.26477 3.94228 9.33285 3.92611 9.39422 3.89791C9.22789 3.82146 9.11211 3.65376 9.11211 3.45869ZM14.1093 3.45869V0.772046C14.1093 0.576968 14.225 0.409312 14.3914 0.332827C14.3282 0.303644 14.2595 0.288504 14.1899 0.288452H14.0287C13.7616 0.288452 13.5451 0.504976 13.5451 0.772046V3.45869C13.5451 3.7258 13.7616 3.94228 14.0287 3.94228H14.1899C14.2619 3.94228 14.33 3.92611 14.3914 3.89791C14.225 3.82146 14.1093 3.65376 14.1093 3.45869Z" fill="#414356"/>
<path d="M7.12527 9.69446H6.1302C6.05003 9.69446 5.97315 9.7263 5.91646 9.78299C5.85978 9.83968 5.82793 9.91656 5.82793 9.99672C5.82793 10.0769 5.85978 10.1538 5.91646 10.2105C5.97315 10.2671 6.05003 10.299 6.1302 10.299H7.12527C7.20544 10.299 7.28232 10.2671 7.33901 10.2105C7.39569 10.1538 7.42754 10.0769 7.42754 9.99672C7.42754 9.91656 7.39569 9.83968 7.33901 9.78299C7.28232 9.7263 7.20544 9.69446 7.12527 9.69446ZM9.89172 9.69446H8.89652C8.81636 9.69446 8.73948 9.7263 8.68279 9.78299C8.6261 9.83968 8.59426 9.91656 8.59426 9.99672C8.59426 10.0769 8.6261 10.1538 8.68279 10.2105C8.73948 10.2671 8.81636 10.299 8.89652 10.299H9.89172C9.97104 10.2977 10.0467 10.2653 10.1023 10.2088C10.158 10.1522 10.1892 10.0761 10.1892 9.99672C10.1892 9.91739 10.158 9.84123 10.1023 9.78469C10.0467 9.72814 9.97104 9.69573 9.89172 9.69446ZM12.6581 9.69446H11.6629C11.5827 9.69446 11.5058 9.7263 11.4492 9.78299C11.3925 9.83968 11.3606 9.91656 11.3606 9.99672C11.3606 10.0769 11.3925 10.1538 11.4492 10.2105C11.5058 10.2671 11.5827 10.299 11.6629 10.299H12.6581C12.7383 10.299 12.8152 10.2671 12.8719 10.2105C12.9285 10.1538 12.9604 10.0769 12.9604 9.99672C12.9604 9.91656 12.9285 9.83968 12.8719 9.78299C12.8152 9.7263 12.7383 9.69446 12.6581 9.69446ZM15.4245 9.69446H14.4293C14.3491 9.69446 14.2722 9.7263 14.2155 9.78299C14.1588 9.83968 14.127 9.91656 14.127 9.99672C14.127 10.0769 14.1588 10.1538 14.2155 10.2105C14.2722 10.2671 14.3491 10.299 14.4293 10.299H15.4245C15.5038 10.2977 15.5794 10.2653 15.6351 10.2088C15.6907 10.1522 15.7219 10.0761 15.7219 9.99672C15.7219 9.91739 15.6907 9.84123 15.6351 9.78469C15.5794 9.72814 15.5038 9.69573 15.4245 9.69446ZM4.35898 12.1296H3.36379C3.28362 12.1296 3.20674 12.1615 3.15006 12.2181C3.09337 12.2748 3.06152 12.3517 3.06152 12.4319C3.06152 12.512 3.09337 12.5889 3.15006 12.6456C3.20674 12.7023 3.28362 12.7341 3.36379 12.7341H4.35898C4.43915 12.7341 4.51603 12.7023 4.57272 12.6456C4.6294 12.5889 4.66125 12.512 4.66125 12.4319C4.66125 12.3517 4.6294 12.2748 4.57272 12.2181C4.51603 12.1615 4.43915 12.1296 4.35898 12.1296ZM7.12527 12.1296H6.1302C6.05003 12.1296 5.97315 12.1615 5.91646 12.2181C5.85978 12.2748 5.82793 12.3517 5.82793 12.4319C5.82793 12.512 5.85978 12.5889 5.91646 12.6456C5.97315 12.7023 6.05003 12.7341 6.1302 12.7341H7.12527C7.16497 12.7342 7.20428 12.7263 7.24095 12.7111C7.27763 12.696 7.31095 12.6737 7.33902 12.6456C7.36709 12.6176 7.38935 12.5842 7.40454 12.5476C7.41973 12.5109 7.42754 12.4716 7.42754 12.4319C7.42754 12.3922 7.41973 12.3529 7.40454 12.3162C7.38935 12.2795 7.36709 12.2462 7.33902 12.2181C7.31095 12.1901 7.27763 12.1678 7.24095 12.1526C7.20428 12.1374 7.16497 12.1296 7.12527 12.1296ZM9.89172 12.1296H8.89652C8.81636 12.1296 8.73948 12.1615 8.68279 12.2181C8.6261 12.2748 8.59426 12.3517 8.59426 12.4319C8.59426 12.512 8.6261 12.5889 8.68279 12.6456C8.73948 12.7023 8.81636 12.7341 8.89652 12.7341H9.89172C9.97188 12.7341 10.0488 12.7023 10.1055 12.6456C10.1621 12.5889 10.194 12.512 10.194 12.4319C10.194 12.3517 10.1621 12.2748 10.1055 12.2181C10.0488 12.1615 9.97188 12.1296 9.89172 12.1296ZM12.6581 12.1296H11.6629C11.5827 12.1296 11.5058 12.1615 11.4492 12.2181C11.3925 12.2748 11.3606 12.3517 11.3606 12.4319C11.3606 12.512 11.3925 12.5889 11.4492 12.6456C11.5058 12.7023 11.5827 12.7341 11.6629 12.7341H12.6581C12.7383 12.7341 12.8152 12.7023 12.8719 12.6456C12.9285 12.5889 12.9604 12.512 12.9604 12.4319C12.9604 12.3517 12.9285 12.2748 12.8719 12.2181C12.8152 12.1615 12.7383 12.1296 12.6581 12.1296ZM15.4245 12.1296H14.4293C14.3491 12.1296 14.2722 12.1615 14.2155 12.2181C14.1588 12.2748 14.127 12.3517 14.127 12.4319C14.127 12.512 14.1588 12.5889 14.2155 12.6456C14.2722 12.7023 14.3491 12.7341 14.4293 12.7341H15.4245C15.5046 12.7341 15.5815 12.7023 15.6382 12.6456C15.6949 12.5889 15.7267 12.512 15.7267 12.4319C15.7267 12.3517 15.6949 12.2748 15.6382 12.2181C15.5815 12.1615 15.5046 12.1296 15.4245 12.1296ZM4.35898 14.5648H3.36379C3.28362 14.5648 3.20674 14.5966 3.15006 14.6533C3.09337 14.71 3.06152 14.7869 3.06152 14.867C3.06152 14.9472 3.09337 15.0241 3.15006 15.0808C3.20674 15.1375 3.28362 15.1693 3.36379 15.1693H4.35898C4.52594 15.1693 4.66125 15.034 4.66125 14.867C4.66125 14.7001 4.52594 14.5648 4.35898 14.5648ZM7.12527 14.5648H6.1302C6.05003 14.5648 5.97315 14.5966 5.91646 14.6533C5.85978 14.71 5.82793 14.7869 5.82793 14.867C5.82793 14.9472 5.85978 15.0241 5.91646 15.0808C5.97315 15.1375 6.05003 15.1693 6.1302 15.1693H7.12527C7.29223 15.1693 7.42754 15.034 7.42754 14.867C7.42754 14.7001 7.29223 14.5648 7.12527 14.5648ZM9.89172 14.5648H8.89652C8.81636 14.5648 8.73948 14.5966 8.68279 14.6533C8.6261 14.71 8.59426 14.7869 8.59426 14.867C8.59426 14.9472 8.6261 15.0241 8.68279 15.0808C8.73948 15.1375 8.81636 15.1693 8.89652 15.1693H9.89172C10.0587 15.1693 10.194 15.034 10.194 14.867C10.194 14.7001 10.0587 14.5648 9.89172 14.5648ZM12.6581 14.5648H11.6629C11.5827 14.5648 11.5058 14.5966 11.4492 14.6533C11.3925 14.71 11.3606 14.7869 11.3606 14.867C11.3606 14.9472 11.3925 15.0241 11.4492 15.0808C11.5058 15.1375 11.5827 15.1693 11.6629 15.1693H12.6581C12.7383 15.1693 12.8152 15.1375 12.8719 15.0808C12.9285 15.0241 12.9604 14.9472 12.9604 14.867C12.9604 14.7869 12.9285 14.71 12.8719 14.6533C12.8152 14.5966 12.7383 14.5648 12.6581 14.5648ZM15.4245 14.5648H14.4293C14.3491 14.5648 14.2722 14.5966 14.2155 14.6533C14.1588 14.71 14.127 14.7869 14.127 14.867C14.127 14.9472 14.1588 15.0241 14.2155 15.0808C14.2722 15.1375 14.3491 15.1693 14.4293 15.1693H15.4245C15.5914 15.1693 15.7267 15.034 15.7267 14.867C15.7267 14.7001 15.5914 14.5648 15.4245 14.5648ZM4.35898 17H3.36379C3.28362 17 3.20674 17.0318 3.15006 17.0885C3.09337 17.1452 3.06152 17.2221 3.06152 17.3022C3.06152 17.3824 3.09337 17.4593 3.15006 17.516C3.20674 17.5727 3.28362 17.6045 3.36379 17.6045H4.35898C4.43915 17.6045 4.51603 17.5727 4.57272 17.516C4.6294 17.4593 4.66125 17.3824 4.66125 17.3022C4.66125 17.2221 4.6294 17.1452 4.57272 17.0885C4.51603 17.0318 4.43915 17 4.35898 17ZM7.12527 17H6.1302C6.05003 17 5.97315 17.0318 5.91646 17.0885C5.85978 17.1452 5.82793 17.2221 5.82793 17.3022C5.82793 17.3824 5.85978 17.4593 5.91646 17.516C5.97315 17.5727 6.05003 17.6045 6.1302 17.6045H7.12527C7.16497 17.6045 7.20428 17.5967 7.24095 17.5815C7.27763 17.5663 7.31095 17.544 7.33902 17.516C7.36709 17.4879 7.38935 17.4546 7.40454 17.4179C7.41973 17.3812 7.42754 17.3419 7.42754 17.3022C7.42754 17.2625 7.41973 17.2232 7.40454 17.1866C7.38935 17.1499 7.36709 17.1166 7.33902 17.0885C7.31095 17.0604 7.27763 17.0382 7.24095 17.023C7.20428 17.0078 7.16497 17 7.12527 17ZM9.89172 17H8.89652C8.81636 17 8.73948 17.0318 8.68279 17.0885C8.6261 17.1452 8.59426 17.2221 8.59426 17.3022C8.59426 17.3824 8.6261 17.4593 8.68279 17.516C8.73948 17.5727 8.81636 17.6045 8.89652 17.6045H9.89172C9.97188 17.6045 10.0488 17.5727 10.1055 17.516C10.1621 17.4593 10.194 17.3824 10.194 17.3022C10.194 17.2221 10.1621 17.1452 10.1055 17.0885C10.0488 17.0318 9.97188 17 9.89172 17ZM12.6581 17H11.6629C11.5827 17 11.5058 17.0318 11.4492 17.0885C11.3925 17.1452 11.3606 17.2221 11.3606 17.3022C11.3606 17.3824 11.3925 17.4593 11.4492 17.516C11.5058 17.5727 11.5827 17.6045 11.6629 17.6045H12.6581C12.7383 17.6045 12.8152 17.5727 12.8719 17.516C12.9285 17.4593 12.9604 17.3824 12.9604 17.3022C12.9604 17.2221 12.9285 17.1452 12.8719 17.0885C12.8152 17.0318 12.7383 17 12.6581 17Z" fill="#585A60"/>
</g>
<defs>
<clipPath id="clip0_1_829">
<rect width="20" height="20" fill="white" transform="translate(0.539062)"/>
</clipPath>
</defs>
</svg>
