<svg width="21" height="21" viewBox="0 0 21 21" fill="none" xmlns="http://www.w3.org/2000/svg">
<path d="M14.7205 8.59867C11.4924 8.59867 8.865 11.2253 8.865 14.4542C8.865 17.6647 11.4924 20.277 14.7205 20.277C17.9486 20.277 20.576 17.6504 20.576 14.4215C20.576 11.2111 17.9486 8.59867 14.7205 8.59867ZM14.7205 18.604C12.4143 18.604 10.538 16.742 10.538 14.4542C10.538 12.1479 12.4143 10.2717 14.7205 10.2717C17.0267 10.2717 18.903 12.1337 18.903 14.4215C18.903 16.7278 17.0267 18.604 14.7205 18.604ZM16.1484 14.6666C16.3053 14.8235 16.3934 15.0362 16.3934 15.258C16.3934 15.4799 16.3053 15.6926 16.1484 15.8495C15.9916 16.0063 15.7788 16.0944 15.557 16.0944C15.3352 16.0944 15.1224 16.0063 14.9656 15.8495L14.1291 15.013C13.9722 14.8561 13.884 14.6434 13.884 14.4215V12.7485C13.884 12.5267 13.9721 12.3139 14.129 12.1571C14.2859 12.0002 14.4986 11.912 14.7205 11.912C14.9424 11.912 15.1551 12.0002 15.312 12.1571C15.4689 12.3139 15.557 12.5267 15.557 12.7485V14.0752L16.1484 14.6666ZM20.576 6.05655V7.72955C20.576 7.9514 20.4879 8.16417 20.331 8.32104C20.1741 8.47792 19.9614 8.56605 19.7395 8.56605C19.5176 8.56605 19.3049 8.47792 19.148 8.32104C18.9911 8.16417 18.903 7.9514 18.903 7.72955V6.05655C18.903 4.67298 17.7771 3.54705 16.3935 3.54705H4.6825C3.29893 3.54705 2.173 4.67298 2.173 6.05655V6.89305H9.7015C9.92335 6.89305 10.1361 6.98118 10.293 7.13805C10.4499 7.29493 10.538 7.5077 10.538 7.72955C10.538 7.9514 10.4499 8.16417 10.293 8.32104C10.1361 8.47792 9.92335 8.56605 9.7015 8.56605H2.173V16.0945C2.173 17.4781 3.29893 18.604 4.6825 18.604H8.0285C8.25035 18.604 8.46312 18.6922 8.61999 18.8491C8.77687 19.0059 8.865 19.2187 8.865 19.4405C8.865 19.6624 8.77687 19.8752 8.61999 20.032C8.46312 20.1889 8.25035 20.277 8.0285 20.277H4.6825C2.37627 20.277 0.5 18.4008 0.5 16.0945V6.05655C0.5 3.75032 2.37627 1.87405 4.6825 1.87405H5.519V1.03755C5.519 0.815696 5.60713 0.602929 5.764 0.446055C5.92088 0.289181 6.13365 0.20105 6.3555 0.20105C6.57735 0.20105 6.79012 0.289181 6.94699 0.446055C7.10387 0.602929 7.192 0.815696 7.192 1.03755V1.87405H13.884V1.03755C13.884 0.815696 13.9721 0.602929 14.129 0.446055C14.2859 0.289181 14.4986 0.20105 14.7205 0.20105C14.9424 0.20105 15.1551 0.289181 15.312 0.446055C15.4689 0.602929 15.557 0.815696 15.557 1.03755V1.87405H16.3935C18.6997 1.87405 20.576 3.75032 20.576 6.05655Z" fill="#BF2426"/>
</svg>
