<svg width="20" height="19" viewBox="0 0 20 19" fill="none" xmlns="http://www.w3.org/2000/svg">
<path d="M15.8333 0.333344H4.16667C3.062 0.334667 2.00296 0.774078 1.22185 1.55519C0.440735 2.33631 0.00132321 3.39535 0 4.50001L0 14.5C0.00132321 15.6047 0.440735 16.6637 1.22185 17.4448C2.00296 18.2259 3.062 18.6654 4.16667 18.6667H15.8333C16.938 18.6654 17.997 18.2259 18.7782 17.4448C19.5593 16.6637 19.9987 15.6047 20 14.5V4.50001C19.9987 3.39535 19.5593 2.33631 18.7782 1.55519C17.997 0.774078 16.938 0.334667 15.8333 0.333344ZM4.16667 2.00001H15.8333C16.3323 2.00099 16.8196 2.15127 17.2325 2.43151C17.6453 2.71175 17.9649 3.10913 18.15 3.57251L11.7683 9.95501C11.2987 10.4228 10.6628 10.6854 10 10.6854C9.33715 10.6854 8.70131 10.4228 8.23167 9.95501L1.85 3.57251C2.03512 3.10913 2.35468 2.71175 2.76754 2.43151C3.1804 2.15127 3.66768 2.00099 4.16667 2.00001ZM15.8333 17H4.16667C3.50363 17 2.86774 16.7366 2.3989 16.2678C1.93006 15.7989 1.66667 15.1631 1.66667 14.5V5.75001L7.05333 11.1333C7.83552 11.9136 8.89521 12.3517 10 12.3517C11.1048 12.3517 12.1645 11.9136 12.9467 11.1333L18.3333 5.75001V14.5C18.3333 15.1631 18.0699 15.7989 17.6011 16.2678C17.1323 16.7366 16.4964 17 15.8333 17Z" fill="#999999"/>
</svg>
