<svg width="24" height="25" viewBox="0 0 24 25" fill="none" xmlns="http://www.w3.org/2000/svg">
<path d="M23.8209 11.681C22.9429 9.761 19.4999 3.5 11.9999 3.5C4.49987 3.5 1.05687 9.761 0.178871 11.681C0.0610095 11.9383 0 12.218 0 12.501C0 12.784 0.0610095 13.0637 0.178871 13.321C1.05687 15.239 4.49987 21.5 11.9999 21.5C19.4999 21.5 22.9429 15.239 23.8209 13.319C23.9385 13.062 23.9994 12.7827 23.9994 12.5C23.9994 12.2173 23.9385 11.938 23.8209 11.681ZM11.9999 19.5C5.69287 19.5 2.74987 14.134 1.99987 12.511C2.74987 10.866 5.69287 5.5 11.9999 5.5C18.2919 5.5 21.2359 10.843 21.9999 12.5C21.2359 14.157 18.2919 19.5 11.9999 19.5Z" fill="#999999"/>
<path d="M12 7.5C11.0111 7.5 10.0444 7.79324 9.22215 8.34265C8.39991 8.89206 7.75904 9.67295 7.3806 10.5866C7.00217 11.5002 6.90315 12.5055 7.09608 13.4755C7.289 14.4454 7.76521 15.3363 8.46447 16.0355C9.16373 16.7348 10.0546 17.211 11.0246 17.4039C11.9945 17.5969 12.9998 17.4978 13.9134 17.1194C14.827 16.741 15.6079 16.1001 16.1574 15.2779C16.7068 14.4556 17 13.4889 17 12.5C16.9984 11.1744 16.4711 9.90356 15.5338 8.96622C14.5964 8.02888 13.3256 7.50159 12 7.5ZM12 15.5C11.4067 15.5 10.8266 15.3241 10.3333 14.9944C9.83994 14.6648 9.45543 14.1962 9.22836 13.6481C9.0013 13.0999 8.94189 12.4967 9.05765 11.9147C9.1734 11.3328 9.45912 10.7982 9.87868 10.3787C10.2982 9.95912 10.8328 9.6734 11.4147 9.55764C11.9967 9.44189 12.5999 9.5013 13.1481 9.72836C13.6962 9.95542 14.1648 10.3399 14.4944 10.8333C14.8241 11.3266 15 11.9067 15 12.5C15 13.2957 14.6839 14.0587 14.1213 14.6213C13.5587 15.1839 12.7957 15.5 12 15.5Z" fill="#999999"/>
</svg>
