<svg width="35" height="35" viewBox="0 0 35 35" fill="none" xmlns="http://www.w3.org/2000/svg">
<path d="M34.0523 15.2154L30.1354 11.2986V1.02539C30.1354 0.459102 29.6763 0 29.11 0H24.7168C24.1505 0 23.6914 0.459102 23.6914 1.02539V4.85468L19.783 0.946299C19.1728 0.336055 18.3615 0 17.4986 0C16.6355 0 15.8242 0.336055 15.214 0.946299L0.944795 15.2156C-0.314932 16.4752 -0.314932 18.5249 0.944795 19.7846C1.55504 20.3948 2.36633 20.7309 3.2293 20.7309C3.41011 20.7309 3.58839 20.7152 3.76332 20.6864V31.229C3.76332 33.3084 5.45508 35.0001 7.5345 35.0001H14.2037C14.77 35.0001 15.2291 34.541 15.2291 33.9747V26.2136H19.7682V33.9746C19.7682 34.5409 20.2273 35 20.7936 35H27.4627C29.5421 35 31.2338 33.3083 31.2338 31.2289V20.6863C31.4087 20.7152 31.5869 20.7308 31.7677 20.7308H31.7679C32.6307 20.7308 33.442 20.3947 34.0524 19.7844C34.6626 19.1743 34.9986 18.363 34.9987 17.5C34.9986 16.637 34.6625 15.8257 34.0523 15.2154ZM25.7422 2.05078H28.0847V9.24786L25.7422 6.90532V2.05078ZM27.4626 32.9492H21.8189V25.1882C21.8189 24.6219 21.3598 24.1628 20.7935 24.1628H14.2036C13.6374 24.1628 13.1783 24.6219 13.1783 25.1882V32.9492H7.53443C6.58581 32.9492 5.81403 32.1775 5.81403 31.2289V19.4841L17.4986 7.79987L29.183 19.4843V31.229C29.183 32.1775 28.4113 32.9492 27.4626 32.9492ZM32.6023 18.3343C32.493 18.4443 32.3629 18.5314 32.2197 18.5908C32.0764 18.6501 31.9228 18.6805 31.7678 18.6801C31.6128 18.6805 31.4592 18.6501 31.316 18.5908C31.1728 18.5315 31.0428 18.4444 30.9335 18.3345L30.9332 18.3343L18.2237 5.62468C17.8233 5.22416 17.1741 5.2243 16.7735 5.62468L4.06383 18.3342L4.06349 18.3345C3.84063 18.5574 3.54443 18.6801 3.2293 18.6801C2.91416 18.6801 2.61782 18.5574 2.3949 18.3345C1.93484 17.8744 1.93484 17.1257 2.3949 16.6657L16.6641 2.39641C16.7734 2.28649 16.9035 2.19934 17.0467 2.14002C17.19 2.08069 17.3435 2.05036 17.4986 2.05078C17.8137 2.05078 18.11 2.17355 18.3329 2.39641L23.9918 8.05519L32.6022 16.6655C33.0623 17.1256 33.0623 17.8743 32.6023 18.3343Z" fill="#1F5FC7"/>
</svg>
