<svg width="20" height="20" viewBox="0 0 20 20" fill="none" xmlns="http://www.w3.org/2000/svg">
<path d="M7.27236 5.78949L6.91019 7.90128C6.89239 8.00501 6.90397 8.11165 6.94363 8.20914C6.98329 8.30662 7.04945 8.39107 7.13461 8.45291C7.21972 8.51482 7.32046 8.55166 7.42542 8.55927C7.53039 8.56688 7.63539 8.54494 7.72854 8.49596L9.625 7.49887L11.5215 8.49596C11.6024 8.53849 11.6925 8.56071 11.7839 8.5607H11.7855C12.0966 8.56029 12.3486 8.30797 12.3486 7.99674C12.3486 7.95342 12.3438 7.91128 12.3345 7.87075L11.9776 5.78949L13.512 4.29386C13.5873 4.22042 13.6406 4.12735 13.6658 4.0252C13.6911 3.92304 13.6872 3.81586 13.6547 3.71578C13.6222 3.61571 13.5623 3.52673 13.4818 3.45891C13.4014 3.3911 13.3035 3.34715 13.1994 3.33203L11.0791 3.02388L10.1308 1.10227C10.0842 1.00795 10.0121 0.928545 9.92276 0.873026C9.8334 0.817507 9.73028 0.788086 9.62508 0.788086C9.51987 0.788086 9.41676 0.817507 9.32739 0.873026C9.23802 0.928545 9.16596 1.00795 9.11935 1.10227L8.17102 3.02373L6.05059 3.33185C5.94647 3.34702 5.84867 3.391 5.76824 3.45884C5.68781 3.52668 5.62796 3.61566 5.59544 3.71573C5.56293 3.8158 5.55906 3.92296 5.58425 4.02512C5.60945 4.12728 5.66272 4.22035 5.73804 4.29382L7.27236 5.78949ZM8.62663 4.09745C8.71711 4.08428 8.80303 4.04931 8.87699 3.99556C8.95095 3.9418 9.01073 3.87088 9.05118 3.78888L9.625 2.62633L10.1988 3.78888C10.2393 3.87087 10.2991 3.9418 10.3731 3.99555C10.4471 4.0493 10.5331 4.08427 10.6236 4.09745L11.9066 4.28382L10.9781 5.18879C10.9126 5.25259 10.8636 5.33136 10.8354 5.41831C10.8071 5.50526 10.8005 5.59777 10.8159 5.68786L11.0351 6.96573L9.88743 6.36244C9.80653 6.31987 9.71648 6.29763 9.62506 6.29763C9.53364 6.29763 9.44359 6.31987 9.36268 6.36244L8.21509 6.96577L8.43421 5.68802C8.44969 5.5979 8.44302 5.50537 8.41478 5.41841C8.38653 5.33144 8.33756 5.25265 8.27209 5.18883L7.34357 4.28382L8.62663 4.09745ZM17.1758 13.4734H14.7596C14.4303 13.4731 14.1059 13.5518 13.8133 13.7028V11.9231C13.8133 10.7794 12.8829 9.84902 11.7393 9.84902H7.51073C6.36709 9.84902 5.43655 10.7794 5.43655 11.9231V12.1926C5.144 12.0417 4.81959 11.9631 4.49044 11.9633H2.07419C0.930392 11.9631 0 12.8937 0 14.0373V19.474C0 19.7854 0.252468 20.0378 0.563965 20.0378H18.686C18.9975 20.0378 19.25 19.7854 19.25 19.474V15.5476C19.25 14.4039 18.3196 13.4734 17.1758 13.4734ZM1.12793 14.0373C1.12793 13.5157 1.55241 13.0911 2.07419 13.0911H4.49044C5.01211 13.0911 5.43655 13.5157 5.43655 14.0373V18.9101H1.12793V14.0373ZM6.56448 14.0373V11.9231C6.56448 11.4014 6.98907 10.977 7.51073 10.977H11.7393C12.2609 10.977 12.6854 11.4014 12.6854 11.9231V18.9101H6.56448V14.0373ZM18.1221 18.9101H13.8133V15.5476C13.8133 15.0258 14.2378 14.6013 14.7596 14.6013H17.1758C17.6976 14.6013 18.1221 15.0258 18.1221 15.5476V18.9101Z" fill="#BF2426"/>
</svg>
