<svg width="26" height="26" viewBox="0 0 26 26" fill="none" xmlns="http://www.w3.org/2000/svg">
<path fill-rule="evenodd" clip-rule="evenodd" d="M2.30916 0.527344H12.1138V25.4728H2.30916C1.32513 25.4728 0.527344 24.675 0.527344 23.691V2.30916C0.527344 1.32513 1.32513 0.527344 2.30916 0.527344ZM13.8956 13.891V25.4728H23.691C24.675 25.4728 25.4728 24.675 25.4728 23.691V13.891H13.8956ZM25.4728 6.32059C25.4728 9.51753 22.8812 12.1092 19.6842 12.1092V12.1092C16.4873 12.1092 13.8956 9.51636 13.8956 6.31942V6.31942C13.8956 3.12119 16.4883 0.527344 19.6866 0.527344H23.691C24.675 0.527344 25.4728 1.32513 25.4728 2.30916V6.32059Z" fill="white" fill-opacity="0.8"/>
</svg>
