<svg width="20" height="21" viewBox="0 0 20 21" fill="none" xmlns="http://www.w3.org/2000/svg">
<g clip-path="url(#clip0_67_329)">
<path d="M15.8332 7.52V6.33333C15.8332 4.78624 15.2186 3.30251 14.1246 2.20854C13.0307 1.11458 11.5469 0.5 9.99984 0.5C8.45274 0.5 6.96901 1.11458 5.87505 2.20854C4.78109 3.30251 4.1665 4.78624 4.1665 6.33333V7.52C3.4243 7.84392 2.79258 8.3771 2.34859 9.05434C1.90459 9.73158 1.66757 10.5235 1.6665 11.3333V16.3333C1.66783 17.438 2.10724 18.497 2.88835 19.2782C3.66947 20.0593 4.72851 20.4987 5.83317 20.5H14.1665C15.2712 20.4987 16.3302 20.0593 17.1113 19.2782C17.8924 18.497 18.3318 17.438 18.3332 16.3333V11.3333C18.3321 10.5235 18.0951 9.73158 17.6511 9.05434C17.2071 8.3771 16.5754 7.84392 15.8332 7.52ZM5.83317 6.33333C5.83317 5.22826 6.27216 4.16846 7.05356 3.38706C7.83496 2.60565 8.89477 2.16667 9.99984 2.16667C11.1049 2.16667 12.1647 2.60565 12.9461 3.38706C13.7275 4.16846 14.1665 5.22826 14.1665 6.33333V7.16667H5.83317V6.33333ZM16.6665 16.3333C16.6665 16.9964 16.4031 17.6323 15.9343 18.1011C15.4654 18.5699 14.8295 18.8333 14.1665 18.8333H5.83317C5.17013 18.8333 4.53424 18.5699 4.0654 18.1011C3.59656 17.6323 3.33317 16.9964 3.33317 16.3333V11.3333C3.33317 10.6703 3.59656 10.0344 4.0654 9.56557C4.53424 9.09672 5.17013 8.83333 5.83317 8.83333H14.1665C14.8295 8.83333 15.4654 9.09672 15.9343 9.56557C16.4031 10.0344 16.6665 10.6703 16.6665 11.3333V16.3333Z" fill="#999999"/>
<path d="M9.99984 12.1667C9.77882 12.1667 9.56686 12.2545 9.41058 12.4107C9.2543 12.567 9.1665 12.779 9.1665 13V14.6667C9.1665 14.8877 9.2543 15.0996 9.41058 15.2559C9.56686 15.4122 9.77882 15.5 9.99984 15.5C10.2209 15.5 10.4328 15.4122 10.5891 15.2559C10.7454 15.0996 10.8332 14.8877 10.8332 14.6667V13C10.8332 12.779 10.7454 12.567 10.5891 12.4107C10.4328 12.2545 10.2209 12.1667 9.99984 12.1667Z" fill="#999999"/>
</g>
<defs>
<clipPath id="clip0_67_329">
<rect width="20" height="20" fill="white" transform="translate(0 0.5)"/>
</clipPath>
</defs>
</svg>
