<svg width="21" height="20" viewBox="0 0 21 20" fill="none" xmlns="http://www.w3.org/2000/svg">
<path d="M10.5391 4.76562L6.28414 3.81004L5.85156 2.42188L10.5391 0L15.2266 2.42188L14.7382 3.83793L10.5391 4.76562Z" fill="#1DE8F1"/>
<path d="M10.5391 4.76562L5.85156 2.42188V8.13922L6.43637 9.15957L10.5391 11.2109L11.7109 9.52695V6.45133L10.5391 4.76562Z" fill="#1BD9DE"/>
<path d="M10.5391 4.76562V11.2109L14.6406 9.16016L15.2266 8.14062V2.42188L10.5391 4.76562Z" fill="#15B7BE"/>
<path d="M8.66215 6.7578C8.46289 6.49995 8.09961 6.45312 7.84184 6.64058L5.85156 8.13921V8.86718L6.43637 9.15956L8.54492 7.57812C8.80277 7.37886 8.86137 7.01558 8.66215 6.7578Z" fill="#1DE8F1"/>
<path d="M12.414 6.75781C12.2148 7.01559 12.2734 7.37887 12.5312 7.57812L14.6406 9.16012L15.2265 8.86715V8.14059L13.2343 6.64055C12.9766 6.45312 12.6133 6.49996 12.414 6.75781Z" fill="#1BD9DE"/>
<path d="M15.2266 13.5547L10.9716 12.5991L10.5391 11.2109L15.2266 8.86719L19.9141 11.2109L19.4257 12.627L15.2266 13.5547Z" fill="#FD4E26"/>
<path d="M15.2266 13.5547L10.5391 11.2109V16.9283L11.1239 17.9486L15.2266 20L16.3984 18.316V15.2404L15.2266 13.5547Z" fill="#FD3018"/>
<path d="M15.2266 13.5547V20L19.3281 17.9492L19.9141 16.9297V11.2109L15.2266 13.5547Z" fill="#E61E14"/>
<path d="M13.3496 15.5469C13.1504 15.289 12.7871 15.2422 12.5293 15.4296L10.5391 16.9283V17.6562L11.1239 17.9486L13.2324 16.3672C13.4903 16.1679 13.5489 15.8046 13.3496 15.5469Z" fill="#FD4E26"/>
<path d="M17.1015 15.5469C16.9023 15.8046 16.9609 16.1679 17.2187 16.3672L19.3281 17.9492L19.914 17.6562V16.9296L17.9218 15.4296C17.6641 15.2422 17.3008 15.289 17.1015 15.5469Z" fill="#FD3018"/>
<path d="M5.85156 13.5547L1.59664 12.5991L1.16406 11.2109L5.85156 8.86719L10.5391 11.2109L10.0507 12.627L5.85156 13.5547Z" fill="#FCBF29"/>
<path d="M5.85156 13.5547L1.16406 11.2109V16.9283L1.74887 17.9486L5.85156 20L7.02344 18.316V15.2404L5.85156 13.5547Z" fill="#FEA832"/>
<path d="M5.85156 13.5547V20L9.95312 17.9492L10.5391 16.9297V11.2109L5.85156 13.5547Z" fill="#FE9923"/>
<path d="M3.97465 15.5469C3.77539 15.289 3.41211 15.2422 3.15434 15.4296L1.16406 16.9283V17.6562L1.74887 17.9486L3.85742 16.3672C4.11527 16.1679 4.17387 15.8046 3.97465 15.5469Z" fill="#FCBF29"/>
<path d="M7.72648 15.5469C7.5273 15.8046 7.58586 16.1679 7.84371 16.3672L9.95308 17.9492L10.539 17.6562V16.9296L8.54683 15.4296C8.28906 15.2422 7.92578 15.289 7.72648 15.5469Z" fill="#FEA832"/>
</svg>
