<svg width="24" height="24" viewBox="0 0 24 24" fill="none" xmlns="http://www.w3.org/2000/svg">
<g clip-path="url(#clip0_26_2372)">
<path d="M19 2H18V1C18 0.448 17.552 0 17 0C16.448 0 16 0.448 16 1V2H8V1C8 0.448 7.552 0 7 0C6.448 0 6 0.448 6 1V2H5C2.243 2 0 4.243 0 7V19C0 21.757 2.243 24 5 24H19C21.757 24 24 21.757 24 19V7C24 4.243 21.757 2 19 2ZM5 4H19C20.654 4 22 5.346 22 7V8H2V7C2 5.346 3.346 4 5 4ZM19 22H5C3.346 22 2 20.654 2 19V10H22V19C22 20.654 20.654 22 19 22ZM16 16C16 16.552 15.552 17 15 17H9C8.448 17 8 16.552 8 16C8 15.448 8.448 15 9 15H15C15.552 15 16 15.448 16 16Z" fill="#4D4D4D"/>
</g>
<defs>
<clipPath id="clip0_26_2372">
<rect width="24" height="24" fill="white"/>
</clipPath>
</defs>
</svg>
