<svg width="24" height="24" viewBox="0 0 24 24" fill="none" xmlns="http://www.w3.org/2000/svg">
<path d="M12 0C5.383 0 0 5.383 0 12C0 18.617 5.383 24 12 24C18.617 24 24 18.617 24 12C24 5.383 18.617 0 12 0ZM6.5 13.5C5.672 13.5 5 12.828 5 12C5 11.172 5.672 10.5 6.5 10.5C7.328 10.5 8 11.172 8 12C8 12.828 7.328 13.5 6.5 13.5ZM12 13.5C11.172 13.5 10.5 12.828 10.5 12C10.5 11.172 11.172 10.5 12 10.5C12.828 10.5 13.5 11.172 13.5 12C13.5 12.828 12.828 13.5 12 13.5ZM17.5 13.5C16.672 13.5 16 12.828 16 12C16 11.172 16.672 10.5 17.5 10.5C18.328 10.5 19 11.172 19 12C19 12.828 18.328 13.5 17.5 13.5Z" fill="#1A1A1A"/>
</svg>
