<svg width="24" height="24" viewBox="0 0 24 24" fill="none" xmlns="http://www.w3.org/2000/svg">
<path d="M24 18.5C24 21.533 21.533 24 18.5 24C15.467 24 13 21.533 13 18.5C13 15.467 15.467 13 18.5 13C21.533 13 24 15.467 24 18.5ZM5.5 13C2.467 13 0 15.467 0 18.5C0 21.533 2.467 24 5.5 24C8.533 24 11 21.533 11 18.5C11 15.467 8.533 13 5.5 13ZM20 4V2.5C20 1.119 18.881 0 17.5 0C16.119 0 15 1.119 15 2.5V4H20ZM19 6H5C2.239 6 0 8.239 0 11V13.418C1.371 11.935 3.326 11 5.5 11C7.674 11 9.629 11.935 11 13.418V10C11 9.449 11.449 9 12 9C12.551 9 13 9.449 13 10V13.418C14.371 11.935 16.326 11 18.5 11C20.674 11 22.629 11.935 24 13.418V11C24 8.239 21.761 6 19 6ZM9 4V2.5C9 1.119 7.881 0 6.5 0H6.492C5.111 0 3.978 1.13 3.974 2.51L3.97 4H9Z" fill="#1A1A1A"/>
</svg>
