<svg width="12" height="14" viewBox="0 0 12 14" fill="none" xmlns="http://www.w3.org/2000/svg">
<path d="M10.7694 3.22934L8.67899 1.19585C8.28978 0.815593 7.82691 0.514123 7.31713 0.308864C6.80734 0.103606 6.26076 -0.00136726 5.70899 1.3445e-05H3C2.20464 0.000939694 1.44213 0.308528 0.879731 0.855308C0.317329 1.40209 0.000952713 2.14341 0 2.91668V11.0833C0.000952713 11.8566 0.317329 12.5979 0.879731 13.1447C1.44213 13.6915 2.20464 13.9991 3 14H8.99999C9.79534 13.9991 10.5579 13.6915 11.1203 13.1447C11.6827 12.5979 11.999 11.8566 12 11.0833V6.11626C12.0015 5.57984 11.8935 5.04846 11.6822 4.55291C11.471 4.05736 11.1607 3.60748 10.7694 3.22934ZM9.92099 4.05418C10.1042 4.23743 10.2618 4.44337 10.3896 4.66668H7.79999C7.64086 4.66668 7.48825 4.60522 7.37573 4.49582C7.26321 4.38643 7.19999 4.23805 7.19999 4.08334V1.56568C7.42975 1.68988 7.64176 1.84286 7.83059 2.02068L9.92099 4.05418ZM10.8 11.0833C10.8 11.5475 10.6103 11.9926 10.2728 12.3208C9.93521 12.649 9.47738 12.8333 8.99999 12.8333H3C2.52261 12.8333 2.06477 12.649 1.72721 12.3208C1.38964 11.9926 1.2 11.5475 1.2 11.0833V2.91668C1.2 2.45255 1.38964 2.00743 1.72721 1.67924C2.06477 1.35105 2.52261 1.16668 3 1.16668H5.70899C5.80739 1.16668 5.90279 1.18535 5.99999 1.1941V4.08334C5.99999 4.54747 6.18963 4.99259 6.5272 5.32078C6.86476 5.64897 7.3226 5.83334 7.79999 5.83334H10.7718C10.7808 5.92784 10.8 6.02001 10.8 6.11626V11.0833Z" fill="#666666"/>
</svg>
