<svg width="25" height="24" viewBox="0 0 25 24" fill="none" xmlns="http://www.w3.org/2000/svg">
<g clip-path="url(#clip0_26_5335)">
<path d="M24.3 11.4371C23.9071 8.41248 22.3772 5.65099 20.0213 3.7139C17.6654 1.77681 14.6604 0.80947 11.6169 1.00851C8.57337 1.20754 5.71986 2.55802 3.63634 4.78544C1.55281 7.01286 0.395622 9.95007 0.399976 13.0001C0.394212 14.6326 0.725034 16.2488 1.37179 17.7477C2.01855 19.2467 2.96735 20.5962 4.15898 21.7121C5.07032 22.5558 6.27113 23.017 7.51298 23.0001H17.28C18.5919 23.0031 19.8524 22.4898 20.789 21.5711C22.1237 20.2725 23.1363 18.6799 23.7459 16.9203C24.3555 15.1607 24.5452 13.283 24.3 11.4371ZM19.391 20.1371C18.8284 20.6914 18.0698 21.0015 17.28 21.0001H7.51298C6.78225 21.0151 6.07347 20.7499 5.53198 20.2591C4.53925 19.3292 3.7488 18.2047 3.20993 16.9558C2.67107 15.7068 2.39535 14.3603 2.39998 13.0001C2.40096 11.5923 2.69875 10.2006 3.27391 8.91566C3.84908 7.63076 4.68869 6.48157 5.73798 5.54306C7.56112 3.89897 9.93101 2.99243 12.386 3.00006C12.7782 3.00022 13.1702 3.02226 13.56 3.06606C15.4356 3.2839 17.2111 4.02862 18.6809 5.21398C20.1507 6.39934 21.2546 7.97684 21.8648 9.76375C22.475 11.5507 22.5665 13.4739 22.1286 15.3106C21.6908 17.1474 20.7416 18.8225 19.391 20.1421V20.1371ZM8.20698 17.2851C8.39661 17.4707 8.50472 17.7241 8.50753 17.9895C8.51035 18.2548 8.40763 18.5104 8.22198 18.7001C8.03632 18.8897 7.78295 18.9978 7.51758 19.0006C7.25222 19.0034 6.99661 18.9007 6.80698 18.7151C5.67194 17.6032 4.89367 16.1786 4.57139 14.6228C4.2491 13.067 4.39739 11.4504 4.99736 9.97918C5.59733 8.50795 6.6218 7.2487 7.94017 6.36194C9.25855 5.47518 10.8111 5.00107 12.4 5.00006C12.7824 4.99995 13.1644 5.02702 13.543 5.08106C13.673 5.0998 13.7981 5.14398 13.911 5.21108C14.0239 5.27817 14.1226 5.36686 14.2012 5.47207C14.2799 5.57729 14.337 5.69697 14.3694 5.82429C14.4018 5.9516 14.4088 6.08405 14.39 6.21406C14.3728 6.34479 14.3296 6.47075 14.2629 6.58455C14.1963 6.69834 14.1076 6.79766 14.0021 6.87667C13.8965 6.95568 13.7762 7.01278 13.6482 7.04462C13.5203 7.07646 13.3873 7.08239 13.257 7.06206C12.0055 6.8833 10.7295 7.10442 9.61107 7.69386C8.49268 8.28331 7.58905 9.21095 7.02913 10.3444C6.46922 11.4779 6.28164 12.7592 6.49315 14.0056C6.70467 15.252 7.30448 16.3998 8.20698 17.2851ZM20.319 11.8571C20.373 12.2357 20.4001 12.6176 20.4 13.0001C20.4032 14.0657 20.1917 15.1211 19.7779 16.1032C19.3642 17.0853 18.7568 17.9739 17.992 18.7161C17.8021 18.9017 17.5462 19.0043 17.2807 19.0013C17.0151 18.9983 16.7616 18.89 16.576 18.7001C16.3903 18.5102 16.2877 18.2543 16.2907 17.9887C16.2937 17.7232 16.4021 17.4697 16.592 17.2841C17.2676 16.6255 17.7779 15.8164 18.081 14.9229C18.3841 14.0294 18.4715 13.0768 18.336 12.1431C18.2981 11.8804 18.366 11.6134 18.525 11.4008C18.6839 11.1882 18.9208 11.0475 19.1835 11.0096C19.4462 10.9716 19.7132 11.0396 19.9257 11.1986C20.1383 11.3575 20.2791 11.5944 20.317 11.8571H20.319ZM14.326 12.4881C14.4463 12.9208 14.42 13.3812 14.251 13.7974C14.0821 14.2136 13.78 14.5621 13.3921 14.7886C13.0042 15.015 12.5522 15.1065 12.1067 15.049C11.6612 14.9914 11.2474 14.7879 10.9298 14.4703C10.6121 14.1527 10.4087 13.7388 10.3511 13.2933C10.2935 12.8479 10.3851 12.3959 10.6115 12.0079C10.8379 11.62 11.1864 11.318 11.6026 11.149C12.0188 10.9801 12.4792 10.9537 12.912 11.0741L16.693 7.29306C16.7852 7.19755 16.8956 7.12137 17.0176 7.06896C17.1396 7.01655 17.2708 6.98896 17.4036 6.98781C17.5364 6.98666 17.668 7.01196 17.7909 7.06224C17.9138 7.11252 18.0255 7.18677 18.1194 7.28066C18.2133 7.37456 18.2875 7.48621 18.3378 7.60911C18.3881 7.732 18.4134 7.86368 18.4122 7.99646C18.4111 8.12924 18.3835 8.26046 18.3311 8.38246C18.2787 8.50447 18.2025 8.61481 18.107 8.70706L14.326 12.4881Z" fill="#4D4D4D"/>
</g>
<defs>
<clipPath id="clip0_26_5335">
<rect width="24" height="24" fill="white" transform="translate(0.399902)"/>
</clipPath>
</defs>
</svg>
