<svg width="21" height="20" viewBox="0 0 21 20" fill="none" xmlns="http://www.w3.org/2000/svg">
<path fill-rule="evenodd" clip-rule="evenodd" d="M10.5391 20C16.0469 20 20.5391 15.5078 20.5391 10C20.5391 4.49219 16.0469 0 10.5391 0C5.03125 0 0.539062 4.49219 0.539062 10C0.539062 15.5078 5.03125 20 10.5391 20Z" fill="#EF5350"/>
<path fill-rule="evenodd" clip-rule="evenodd" d="M9.46094 6.08984V13.9141C9.46094 14.7539 8.77344 15.4453 7.92969 15.4453C7.08594 15.4453 6.39844 14.7578 6.39844 13.9141V6.08984C6.39844 5.24609 7.08594 4.55859 7.92969 4.55859C8.77344 4.55469 9.46094 5.24609 9.46094 6.08984ZM13.1484 4.55469C12.3047 4.55469 11.6172 5.24219 11.6172 6.08594V13.9102C11.6172 14.75 12.3047 15.4414 13.1484 15.4414C13.9883 15.4414 14.6797 14.7539 14.6797 13.9102V6.08984C14.6797 5.24609 13.9883 4.55469 13.1484 4.55469Z" fill="white"/>
</svg>
