<svg width="21" height="20" viewBox="0 0 21 20" fill="none" xmlns="http://www.w3.org/2000/svg">
<path d="M16.3724 20H4.70573C3.60107 19.9987 2.54203 19.5593 1.76091 18.7782C0.979797 17.997 0.540386 16.938 0.539062 15.8333L0.539063 4.16667C0.540386 3.062 0.979797 2.00296 1.76091 1.22185C2.54203 0.440735 3.60107 0.00132321 4.70573 0L16.3724 0C17.4771 0.00132321 18.5361 0.440735 19.3172 1.22185C20.0983 2.00296 20.5377 3.062 20.5391 4.16667V15.8333C20.5377 16.938 20.0983 17.997 19.3172 18.7782C18.5361 19.5593 17.4771 19.9987 16.3724 20ZM4.70573 1.66667C4.04269 1.66667 3.4068 1.93006 2.93796 2.3989C2.46912 2.86774 2.20573 3.50363 2.20573 4.16667V15.8333C2.20573 16.4964 2.46912 17.1323 2.93796 17.6011C3.4068 18.0699 4.04269 18.3333 4.70573 18.3333H16.3724C17.0354 18.3333 17.6713 18.0699 18.1402 17.6011C18.609 17.1323 18.8724 16.4964 18.8724 15.8333V4.16667C18.8724 3.50363 18.609 2.86774 18.1402 2.3989C17.6713 1.93006 17.0354 1.66667 16.3724 1.66667H4.70573ZM8.32406 14.1708C7.97667 14.1697 7.63574 14.0768 7.33573 13.9017C7.03935 13.732 6.79336 13.4867 6.62292 13.1908C6.45249 12.8949 6.36373 12.559 6.36573 12.2175V7.7825C6.36545 7.44095 6.45499 7.10534 6.62538 6.80933C6.79577 6.51332 7.04101 6.26733 7.33649 6.09603C7.63198 5.92474 7.96731 5.83416 8.30886 5.83339C8.6504 5.83263 8.98615 5.9217 9.2824 6.09167L13.6807 8.2875C13.9862 8.45243 14.2421 8.69606 14.4218 8.99315C14.6014 9.29025 14.6984 9.62998 14.7025 9.97715C14.7067 10.3243 14.6179 10.6663 14.4455 10.9676C14.273 11.2689 14.023 11.5186 13.7216 11.6908L9.24156 13.93C8.96215 14.0894 8.64573 14.1724 8.32406 14.1708ZM8.30323 7.50417C8.2573 7.50415 8.21218 7.51622 8.1724 7.53917C8.12918 7.5632 8.09331 7.59855 8.06865 7.64142C8.04399 7.68428 8.03145 7.73305 8.0324 7.7825V12.2175C8.03268 12.2662 8.04563 12.314 8.06997 12.3562C8.09431 12.3984 8.12921 12.4335 8.17124 12.4582C8.21327 12.4828 8.26098 12.4961 8.30969 12.4967C8.3584 12.4973 8.40643 12.4852 8.44906 12.4617L12.9291 10.2217C12.9624 10.1956 12.989 10.1618 13.0064 10.1232C13.0238 10.0845 13.0316 10.0423 13.0291 10C13.0301 9.95043 13.0175 9.90153 12.9927 9.85863C12.9679 9.81572 12.9317 9.78045 12.8882 9.75667L8.49323 7.56083C8.43593 7.52568 8.37042 7.50614 8.30323 7.50417Z" fill="#BF2426"/>
</svg>
