<svg width="40" height="38" viewBox="0 0 40 38" fill="none" xmlns="http://www.w3.org/2000/svg">
<path fill-rule="evenodd" clip-rule="evenodd" d="M13.2216 0.511086C13.3094 0.394535 13.4281 0.298971 13.5673 0.232829C13.7064 0.166687 13.8618 0.132002 14.0196 0.131836H28.7622C28.92 0.131974 29.0753 0.166615 29.2145 0.2327C29.3536 0.298786 29.4724 0.394286 29.5601 0.510772C29.6479 0.62726 29.7021 0.761153 29.7179 0.900639C29.7336 1.04012 29.7105 1.18091 29.6506 1.31059L27.0124 7.04034C30.4736 10.0641 32.7656 12.6044 34.1424 15.324C35.5884 18.1787 35.9883 21.1495 35.8114 24.9385C35.8062 25.0507 35.7762 25.1609 35.7232 25.2628C35.6701 25.3646 35.5949 25.4562 35.5019 25.5323C35.409 25.6083 35.3001 25.6674 35.1815 25.7061C35.0629 25.7447 34.9368 25.7623 34.8106 25.7577C34.6843 25.7531 34.5603 25.7264 34.4456 25.6793C34.331 25.6321 34.2279 25.5653 34.1423 25.4827C34.0567 25.4002 33.9902 25.3034 33.9467 25.198C33.9031 25.0926 33.8834 24.9807 33.8886 24.8685C34.0616 21.2298 33.6674 18.5494 32.3887 16.0245C31.1331 13.5474 28.9853 11.142 25.4856 8.10463H17.2096C14.5619 9.81638 11.8064 12.8726 9.9893 16.0791C9.05864 17.7243 8.39717 19.3711 8.11643 20.8556C7.83377 22.3504 7.95299 23.6009 8.47024 24.5234C8.53109 24.6242 8.56853 24.7349 8.58033 24.8488C8.59214 24.9627 8.57808 25.0775 8.53897 25.1865C8.49987 25.2955 8.43653 25.3964 8.3527 25.4832C8.26888 25.57 8.16628 25.641 8.05099 25.6919C7.93571 25.7429 7.81008 25.7727 7.68157 25.7797C7.55306 25.7866 7.42428 25.7706 7.30287 25.7325C7.18147 25.6945 7.0699 25.6351 6.97481 25.558C6.87971 25.4809 6.80302 25.3876 6.74928 25.2836C5.98398 23.917 5.90322 22.2616 6.22049 20.5738C6.54161 18.8757 7.27999 17.0631 8.27219 15.3121C10.1124 12.0628 12.8928 8.89559 15.729 6.95663L13.1293 1.31059C13.0697 1.18082 13.0469 1.04002 13.063 0.900589C13.0791 0.761161 13.1336 0.627394 13.2216 0.511086ZM17.5481 6.39629H25.2318L27.3277 1.84017H15.4522L17.5481 6.39629Z" fill="white"/>
<path d="M15.022 12.946C15.022 12.7194 15.1233 12.5022 15.3036 12.342C15.4839 12.1818 15.7284 12.0918 15.9834 12.0918H26.238C26.493 12.0918 26.7376 12.1818 26.9179 12.342C27.0982 12.5022 27.1995 12.7194 27.1995 12.946C27.1995 13.1725 27.0982 13.3898 26.9179 13.55C26.7376 13.7101 26.493 13.8001 26.238 13.8001H24.694C24.9901 14.1965 25.2055 14.6628 25.317 15.201H25.8592C26.1142 15.201 26.3588 15.291 26.5391 15.4511C26.7194 15.6113 26.8207 15.8286 26.8207 16.0551C26.8207 16.2817 26.7194 16.4989 26.5391 16.6591C26.3588 16.8193 26.1142 16.9093 25.8592 16.9093H25.3227C25.225 17.4566 24.9968 17.979 24.6536 18.4417C24.1556 19.1028 23.4537 19.5692 22.6557 19.8938C21.6059 20.3243 20.3271 20.5361 18.96 20.6283C20.4214 22.007 22.1904 23.196 24.2267 24.1475C24.3415 24.1981 24.4438 24.2685 24.5275 24.3548C24.6112 24.441 24.6747 24.5412 24.7142 24.6495C24.7537 24.7578 24.7685 24.872 24.7576 24.9855C24.7466 25.0989 24.7103 25.2093 24.6507 25.3101C24.5911 25.4108 24.5094 25.5 24.4104 25.5724C24.3115 25.6447 24.1972 25.6987 24.0744 25.7313C23.9516 25.7638 23.8227 25.7742 23.6953 25.7619C23.5679 25.7495 23.4446 25.7147 23.3326 25.6594C20.4406 24.3098 18.0178 22.5024 16.1815 20.3482C16.0732 20.2213 16.007 20.07 15.9904 19.9115C15.9738 19.753 16.0074 19.5935 16.0873 19.451C16.1673 19.3085 16.2905 19.1888 16.4431 19.1052C16.5956 19.0216 16.7714 18.9776 16.9506 18.9781C19.0138 18.9781 20.704 18.8124 21.8539 18.3426C22.4077 18.1154 22.7961 17.8335 23.0538 17.4918C23.1881 17.3123 23.2899 17.1151 23.3557 16.9076H16.2776C16.0226 16.9076 15.7781 16.8176 15.5978 16.6574C15.4175 16.4972 15.3162 16.28 15.3162 16.0534C15.3162 15.8269 15.4175 15.6096 15.5978 15.4494C15.7781 15.2892 16.0226 15.1993 16.2776 15.1993H23.3384C23.2114 14.843 22.9627 14.5307 22.6269 14.3058C22.1173 13.9624 21.4155 13.8001 20.7329 13.8001H15.9834C15.7284 13.8001 15.4839 13.7101 15.3036 13.55C15.1233 13.3898 15.022 13.1725 15.022 12.946Z" fill="white"/>
<path fill-rule="evenodd" clip-rule="evenodd" d="M35.6825 27.3573L26.9835 29.5132C22.9339 27.6545 19.4266 26.6534 15.6136 26.3955C11.714 26.1307 7.55681 26.6483 2.25932 27.728C1.68208 27.846 1.18114 28.1627 0.866423 28.6085C0.551709 29.0544 0.448938 29.5929 0.580666 30.106L1.61901 34.1581C1.89206 35.2344 3.09962 35.9075 4.31102 35.658L11.041 34.2777C16.5443 36.83 21.2687 37.8362 25.7202 37.4672C30.2524 37.0913 34.3731 35.2976 38.638 32.4857C40.6589 31.1532 40.2205 28.4728 38.0419 27.5435C37.3068 27.2294 36.4684 27.1632 35.6825 27.3573ZM36.1978 29.0041C36.5346 28.9205 36.894 28.9484 37.2093 29.0827C38.1765 29.4961 38.2707 30.5997 37.4919 31.1139C33.3828 33.8233 29.5928 35.4291 25.5413 35.7657C21.4918 36.1022 17.0519 35.1814 11.6237 32.6206C11.4192 32.5239 11.1822 32.496 10.9564 32.542L3.87645 33.9941C3.83529 34.0025 3.79268 34.0035 3.75107 33.9972C3.70945 33.9909 3.66965 33.9773 3.63393 33.9574C3.59821 33.9374 3.56727 33.9113 3.5429 33.8807C3.51853 33.8501 3.50119 33.8155 3.49188 33.7789L2.45546 29.7267C2.43697 29.6552 2.45105 29.58 2.49462 29.5176C2.5382 29.4552 2.60774 29.4106 2.68812 29.3936C7.926 28.3259 11.8583 27.8544 15.4675 28.0987C19.0459 28.3413 22.3763 29.2945 26.3893 31.1651L26.5105 31.2335C26.6627 31.321 26.7746 31.4541 26.8258 31.6087C26.8769 31.7633 26.864 31.9291 26.7892 32.0759C26.7145 32.2227 26.583 32.3408 26.4186 32.4088C26.2542 32.4768 26.0678 32.4901 25.8932 32.4464L17.2019 30.2751C17.0787 30.2395 16.9487 30.2264 16.8196 30.2366C16.6906 30.2468 16.5652 30.28 16.451 30.3343C16.3367 30.3886 16.236 30.4629 16.1549 30.5526C16.0738 30.6424 16.014 30.7458 15.979 30.8566C15.944 30.9674 15.9345 31.0834 15.9512 31.1975C15.9679 31.3116 16.0104 31.4216 16.0761 31.5208C16.1419 31.62 16.2295 31.7063 16.3337 31.7747C16.438 31.843 16.5567 31.8919 16.6827 31.9185L25.3741 34.0915C25.8578 34.2119 26.3699 34.209 26.8519 34.0833C27.334 33.9576 27.7665 33.7141 28.1003 33.3805C28.4341 33.0469 28.6556 32.6367 28.7397 32.1967C28.8237 31.7567 28.7669 31.3045 28.5756 30.8918L36.1978 29.0041Z" fill="white"/>
</svg>
