<svg width="20" height="21" viewBox="0 0 20 21" fill="none" xmlns="http://www.w3.org/2000/svg">
<path fill-rule="evenodd" clip-rule="evenodd" d="M4.09499 5.88058L1.28308 4.25714C0.617646 5.40722 0.236816 6.74252 0.236816 8.16679C0.236816 9.59106 0.617687 10.9264 1.28308 12.0764L4.09208 10.4546C3.7037 9.78244 3.48136 9.00224 3.48136 8.17007C3.48136 7.33586 3.70485 6.55393 4.09499 5.88058Z" fill="#FF6372"/>
<path fill-rule="evenodd" clip-rule="evenodd" d="M0.236816 8.16694H3.4814C3.48259 6.47509 4.40249 4.99824 5.76917 4.20816L4.14515 1.39526C2.95753 2.08294 1.97076 3.06971 1.28308 4.25733C0.617687 5.40737 0.236816 6.74268 0.236816 8.16694Z" fill="#EB4E5C"/>
<path fill-rule="evenodd" clip-rule="evenodd" d="M1.2832 4.25697L4.09511 5.88041C4.8863 4.515 6.36328 3.59646 8.05492 3.59646V0.348633C6.63066 0.348633 5.29535 0.729504 4.14527 1.3949C2.95765 2.08258 1.97088 3.06935 1.2832 4.25697Z" fill="#FFD54F"/>
<path fill-rule="evenodd" clip-rule="evenodd" d="M4.146 1.3949L5.77001 4.20779C6.44246 3.81905 7.22303 3.59646 8.05561 3.59646C8.88818 3.59646 9.66879 3.81905 10.3412 4.20779L11.9653 1.3949C10.8152 0.729504 9.47991 0.348633 8.05565 0.348633C6.63138 0.348633 5.29607 0.729504 4.146 1.3949Z" fill="#FFC328"/>
<path fill-rule="evenodd" clip-rule="evenodd" d="M8.05518 0.348633V3.59646C9.74682 3.59646 11.2238 4.515 12.015 5.88041L14.8269 4.25697C14.1392 3.06935 13.1524 2.08258 11.9648 1.3949C10.8147 0.729504 9.47944 0.348633 8.05518 0.348633Z" fill="#43A2FF"/>
<path fill-rule="evenodd" clip-rule="evenodd" d="M11.9648 1.39526L10.3408 4.20816C11.0353 4.61002 11.6125 5.18669 12.015 5.88081L14.8269 4.25733C14.1392 3.06971 13.1525 2.08294 11.9648 1.39526Z" fill="#2891FA"/>
<path fill-rule="evenodd" clip-rule="evenodd" d="M8.05485 6.95994C8.16961 6.95994 8.28064 6.97594 8.38581 7.00576L10.258 5.79682C10.3072 5.76503 10.3703 5.77172 10.4117 5.81319C10.4532 5.85465 10.4599 5.91769 10.4281 5.96695L9.21916 7.83911C9.24966 7.94678 9.26508 8.05816 9.26498 8.17007C9.26498 8.83838 8.7232 9.38019 8.05485 9.38019C7.3865 9.38019 6.84473 8.83842 6.84473 8.17007C6.84473 7.50176 7.3865 6.95994 8.05485 6.95994Z" fill="#98999B"/>
<path d="M8.05421 8.5765C8.27858 8.5765 8.46047 8.39461 8.46047 8.17024C8.46047 7.94587 8.27858 7.76398 8.05421 7.76398C7.82984 7.76398 7.64795 7.94587 7.64795 8.17024C7.64795 8.39461 7.82984 8.5765 8.05421 8.5765Z" fill="#F0F0F0"/>
<path fill-rule="evenodd" clip-rule="evenodd" d="M2.68621 16.5845H4.59844C4.65311 16.5846 4.7055 16.6063 4.74416 16.645C4.78281 16.6837 4.80457 16.7361 4.80466 16.7907V20.4454C4.80457 20.5001 4.78281 20.5525 4.74416 20.5912C4.7055 20.6298 4.65311 20.6516 4.59844 20.6517H2.68621C2.63154 20.6516 2.57914 20.6298 2.54049 20.5912C2.50184 20.5525 2.48008 20.5001 2.47998 20.4454V16.7907C2.48008 16.7361 2.50184 16.6837 2.54049 16.645C2.57914 16.6063 2.63154 16.5846 2.68621 16.5845Z" fill="#FF6372"/>
<path fill-rule="evenodd" clip-rule="evenodd" d="M6.44548 14.2876H8.35771C8.41238 14.2877 8.46478 14.3095 8.50343 14.3481C8.54208 14.3868 8.56384 14.4392 8.56394 14.4938V20.445C8.56384 20.4997 8.54209 20.5521 8.50343 20.5907C8.46478 20.6294 8.41238 20.6511 8.35771 20.6513H6.44548C6.39082 20.6511 6.33842 20.6294 6.29976 20.5907C6.26111 20.5521 6.23936 20.4997 6.23926 20.445V14.4938C6.23936 14.4392 6.26111 14.3868 6.29977 14.3481C6.33842 14.3095 6.39082 14.2877 6.44548 14.2876Z" fill="#FFD54F"/>
<path fill-rule="evenodd" clip-rule="evenodd" d="M10.2048 11.9914H12.117C12.1717 11.9915 12.2241 12.0133 12.2627 12.0519C12.3014 12.0906 12.3231 12.143 12.3232 12.1977V20.4452C12.3231 20.4999 12.3014 20.5523 12.2627 20.591C12.2241 20.6296 12.1717 20.6514 12.117 20.6515H10.2048C10.1501 20.6514 10.0977 20.6296 10.059 20.591C10.0204 20.5523 9.99863 20.4999 9.99854 20.4452V12.1977C9.99863 12.143 10.0204 12.0906 10.059 12.0519C10.0977 12.0133 10.1501 11.9915 10.2048 11.9914Z" fill="#6CE75A"/>
<path fill-rule="evenodd" clip-rule="evenodd" d="M13.9611 9.69452H15.8733C15.928 9.69462 15.9804 9.71638 16.0191 9.75503C16.0577 9.79368 16.0795 9.84608 16.0796 9.90075V20.4448C16.0795 20.4995 16.0577 20.5519 16.0191 20.5905C15.9804 20.6292 15.928 20.651 15.8733 20.6511H13.9611C13.9064 20.651 13.854 20.6292 13.8154 20.5905C13.7767 20.5519 13.755 20.4995 13.7549 20.4448V9.90075C13.755 9.84608 13.7768 9.79369 13.8154 9.75504C13.8541 9.71639 13.9064 9.69463 13.9611 9.69452Z" fill="#F1CB86"/>
<path fill-rule="evenodd" clip-rule="evenodd" d="M17.7204 7.39838H19.6326C19.6873 7.39847 19.7397 7.42023 19.7783 7.45889C19.817 7.49754 19.8387 7.54994 19.8388 7.6046V20.4451C19.8387 20.4997 19.817 20.5521 19.7783 20.5908C19.7397 20.6295 19.6873 20.6512 19.6326 20.6513H17.7204C17.6657 20.6512 17.6133 20.6295 17.5747 20.5908C17.536 20.5521 17.5143 20.4997 17.5142 20.4451V7.6046C17.5143 7.54994 17.536 7.49755 17.5747 7.4589C17.6133 7.42025 17.6657 7.39848 17.7204 7.39838Z" fill="#43A2FF"/>
<path fill-rule="evenodd" clip-rule="evenodd" d="M16.5348 3.81915C16.4545 3.81653 16.3784 3.78244 16.3229 3.72424C16.2675 3.66604 16.2371 3.58839 16.2383 3.50801C16.2396 3.42763 16.2724 3.35097 16.3296 3.29453C16.3869 3.2381 16.464 3.20641 16.5444 3.2063L18.5947 3.24481C18.676 3.2461 18.7534 3.27961 18.8099 3.33797C18.8665 3.39633 18.8976 3.47477 18.8963 3.55604L18.8578 5.60629C18.8551 5.68663 18.821 5.76273 18.7628 5.81818C18.7046 5.87363 18.627 5.904 18.5466 5.90274C18.4662 5.90148 18.3896 5.8687 18.3331 5.81145C18.2767 5.7542 18.245 5.67708 18.2449 5.59669L18.2695 4.28964C16.6925 5.79451 14.3982 7.5414 11.916 9.17395C9.19501 10.9636 6.24402 12.6185 3.76229 13.6679C3.6874 13.6994 3.60304 13.6999 3.52778 13.6693C3.45251 13.6386 3.3925 13.5794 3.36095 13.5045C3.3294 13.4296 3.32889 13.3452 3.35953 13.2699C3.39018 13.1947 3.44947 13.1347 3.52436 13.1031C5.97205 12.0681 8.88773 10.4325 11.5796 8.66207C14.0339 7.0479 16.2986 5.32389 17.8482 3.8438L16.5348 3.81915Z" fill="#FEDFC5"/>
</svg>
