<svg width="27" height="27" viewBox="0 0 27 27" fill="none" xmlns="http://www.w3.org/2000/svg">
<path d="M24.8135 0.272461C25.918 0.272461 26.8135 1.16789 26.8135 2.27246V19.126C26.8135 20.2305 25.918 21.126 24.8135 21.126H20.1504C19.5667 21.126 19.0118 21.3811 18.6318 21.8242L15.0615 25.9902C14.2633 26.9212 12.8226 26.9213 12.0244 25.9902L8.4541 21.8242C8.07415 21.3811 7.51925 21.126 6.93555 21.126H2.27246C1.16789 21.126 0.272461 20.2305 0.272461 19.126V2.27246C0.272462 1.16789 1.16789 0.272461 2.27246 0.272461H24.8135ZM13.3896 2.89355C12.5108 2.89358 11.7032 3.06006 10.9668 3.39258C10.2303 3.72518 9.58842 4.18829 9.04199 4.78223C8.50749 5.36424 8.09189 6.04144 7.79492 6.81348C7.49795 7.5856 7.34961 8.41768 7.34961 9.30859C7.34964 10.1993 7.49801 11.0307 7.79492 11.8027C8.09184 12.5747 8.50759 13.2577 9.04199 13.8516C9.58842 14.4336 10.2303 14.891 10.9668 15.2236C11.3138 15.3803 11.677 15.4982 12.0557 15.5811L10.2891 16.2393C9.87353 16.3937 9.66604 16.7029 9.66602 17.166C9.66602 17.4273 9.76688 17.6708 9.96875 17.8965C10.1706 18.1221 10.42 18.2353 10.7168 18.2354C11.0017 18.2354 11.2216 18.1934 11.376 18.1104C11.5423 18.0391 11.6916 17.9621 11.8223 17.8789C11.9647 17.8077 12.1486 17.7715 12.374 17.7715C12.7304 17.7715 13.0337 17.8371 13.2832 17.9678C13.5326 18.1103 13.7999 18.2654 14.085 18.4316C14.37 18.6097 14.7325 18.7639 15.1719 18.8945C15.6113 19.037 16.1992 19.1084 16.9355 19.1084C17.268 19.1084 17.6363 19.0551 18.04 18.9482C18.4558 18.8413 18.8543 18.693 19.2344 18.5029C19.6145 18.3129 19.9236 18.0922 20.1611 17.8428C20.4103 17.6053 20.5351 17.3502 20.5352 17.0771C20.5352 16.8039 20.4277 16.5605 20.2139 16.3467C20.0001 16.1449 19.7689 16.044 19.5195 16.0439C19.3295 16.0439 19.1507 16.1029 18.9844 16.2217C18.83 16.3523 18.652 16.4951 18.4502 16.6494C18.2839 16.7801 18.088 16.899 17.8623 17.0059C17.6485 17.1128 17.3812 17.166 17.0605 17.166C16.6685 17.166 16.3176 17.1004 16.0088 16.9697C15.712 16.851 15.4207 16.7149 15.1357 16.5605C14.8508 16.4062 14.5481 16.2634 14.2275 16.1328C14.0444 16.0624 13.8419 16.015 13.6211 15.9863L14.6953 15.5879C15.0844 15.5048 15.4576 15.3843 15.8135 15.2236C16.5617 14.891 17.2028 14.4335 17.7373 13.8516C18.2837 13.2576 18.706 12.5748 19.0029 11.8027C19.2998 11.0308 19.4482 10.1993 19.4482 9.30859C19.4482 8.41768 19.2999 7.5856 19.0029 6.81348C18.706 6.0414 18.2837 5.36426 17.7373 4.78223C17.2029 4.18846 16.5616 3.72513 15.8135 3.39258C15.077 3.05997 14.2687 2.89355 13.3896 2.89355ZM13.3896 5.03223C14.1261 5.03223 14.7737 5.22242 15.332 5.60254C15.8902 5.98264 16.3297 6.4991 16.6504 7.15234C16.9711 7.7938 17.1318 8.51271 17.1318 9.30859C17.1318 10.1043 16.9711 10.8292 16.6504 11.4824C16.3297 12.1237 15.8902 12.6346 15.332 13.0146C14.7738 13.3947 14.1261 13.585 13.3896 13.585C12.6533 13.5849 12.0055 13.3947 11.4473 13.0146C10.8891 12.6346 10.4496 12.1237 10.1289 11.4824C9.8201 10.8292 9.66606 10.1043 9.66602 9.30859C9.66602 8.50098 9.82017 7.77613 10.1289 7.13477C10.4495 6.4935 10.8892 5.98262 11.4473 5.60254C12.0055 5.22246 12.6533 5.03227 13.3896 5.03223Z" fill="white" fill-opacity="0.8"/>
</svg>
