<svg width="16" height="16" viewBox="0 0 16 16" fill="none" xmlns="http://www.w3.org/2000/svg">
<path d="M13.656 5.33333L15.6633 2.66933C16.046 2.16133 16.1073 1.492 15.8233 0.923333C15.5393 0.354 14.968 0 14.332 0H3C1.346 0 0 1.346 0 3V15C0.0226667 16.3147 1.978 16.314 2 15V10.6667H14.332C14.968 10.6667 15.54 10.3133 15.8233 9.74333C16.1073 9.174 16.046 8.50533 15.6633 7.99733L13.656 5.33333ZM2 8.66667V3C2 2.44867 2.44867 2 3 2H13.6633L11.6053 4.732C11.3373 5.088 11.3373 5.57933 11.6053 5.93533L13.6633 8.66733H2V8.66667Z" fill="black"/>
</svg>
