<svg width="12" height="17" viewBox="0 0 12 17" fill="none" xmlns="http://www.w3.org/2000/svg">
<path d="M5.49333 16.375C5.27491 16.3742 5.05927 16.326 4.86133 16.2336C4.538 16.0897 4.27833 15.8326 4.13104 15.5108C3.98374 15.189 3.95896 14.8245 4.06133 14.4856L5.102 11.0416H2.65C2.3376 11.042 2.02946 10.9692 1.75027 10.829C1.47107 10.6889 1.2286 10.4853 1.04227 10.2345C0.855944 9.98378 0.730947 9.69287 0.677297 9.38511C0.623647 9.07736 0.642837 8.76131 0.733328 8.46231L2.74933 1.79564C2.87221 1.38329 3.12552 1.02192 3.47123 0.765766C3.81694 0.509609 4.2364 0.372485 4.66666 0.374972H7.12866C7.4085 0.375206 7.68412 0.44319 7.93197 0.573112C8.17981 0.703035 8.39252 0.891033 8.55191 1.12104C8.7113 1.35105 8.81263 1.61623 8.84724 1.89392C8.88185 2.1716 8.84871 2.45354 8.75066 2.71564L7.62866 5.70831H9.33333C9.6967 5.70828 10.0532 5.80725 10.3646 5.99458C10.6759 6.18191 10.9304 6.45053 11.1006 6.77158C11.2707 7.09263 11.3503 7.45398 11.3305 7.81681C11.3108 8.17965 11.1926 8.53025 10.9887 8.83097L6.722 15.6976C6.5901 15.9042 6.40854 16.0744 6.19391 16.1928C5.97927 16.3111 5.73841 16.3737 5.49333 16.375ZM4.66666 1.70831C4.52349 1.70817 4.38408 1.75412 4.26906 1.83937C4.15404 1.92461 4.06951 2.04462 4.028 2.18164L2.012 8.84831C1.98181 8.94792 1.97537 9.05321 1.99319 9.15576C2.011 9.2583 2.05258 9.35525 2.1146 9.43885C2.17661 9.52244 2.25733 9.59035 2.3503 9.63714C2.44328 9.68393 2.54591 9.7083 2.65 9.70831H6C6.10408 9.70831 6.20672 9.73268 6.29969 9.77948C6.39266 9.82627 6.47338 9.89418 6.5354 9.97777C6.59741 10.0614 6.63899 10.1583 6.65681 10.2609C6.67462 10.3634 6.66818 10.4687 6.638 10.5683L5.34 14.863C5.33399 14.8788 5.33134 14.8957 5.3322 14.9125C5.33307 14.9294 5.33743 14.9459 5.34502 14.961C5.3526 14.9761 5.36324 14.9895 5.37626 15.0003C5.38928 15.0111 5.4044 15.019 5.42066 15.0236C5.4354 15.0331 5.45195 15.0393 5.46926 15.042C5.48656 15.0447 5.50423 15.0437 5.52112 15.0391C5.53802 15.0345 5.55376 15.0264 5.56735 15.0154C5.58093 15.0043 5.59206 14.9906 5.6 14.975L9.86666 8.10831C9.94127 8.00711 9.98575 7.88687 9.99495 7.76148C10.0042 7.63609 9.9777 7.51065 9.91866 7.39964C9.86395 7.29151 9.78022 7.20075 9.67684 7.13752C9.57346 7.07429 9.45451 7.04109 9.33333 7.04164H6.66666C6.55891 7.04171 6.45275 7.01566 6.35728 6.96572C6.2618 6.91578 6.17985 6.84345 6.11844 6.75491C6.05703 6.66637 6.018 6.56427 6.00469 6.45735C5.99138 6.35042 6.00418 6.24187 6.042 6.14097L7.502 2.24764C7.52443 2.18728 7.53195 2.12239 7.52394 2.0585C7.51592 1.9946 7.49259 1.93359 7.45594 1.88064C7.41929 1.82769 7.3704 1.78438 7.31342 1.75437C7.25644 1.72437 7.19306 1.70857 7.12866 1.70831H4.66666Z" fill="black"/>
</svg>
