<svg width="21" height="14" viewBox="0 0 21 14" fill="none" xmlns="http://www.w3.org/2000/svg">
<path d="M19.6249 2.44833C19.3506 2.30987 19.043 2.25115 18.737 2.27885C18.4311 2.30654 18.139 2.41954 17.8941 2.605C17.8616 2.62942 17.831 2.65615 17.8024 2.685L16.3382 4.1625C16.1624 2.025 14.3874 0.334167 12.2057 0.334167H4.70573C3.60108 0.33505 2.54191 0.774206 1.76072 1.55524C0.979534 2.33627 0.540166 3.39535 0.539063 4.5L0.539062 9.5C0.539062 11.7975 2.40823 13.6667 4.70573 13.6667H12.2057C14.3966 13.6667 16.1791 11.9608 16.3407 9.81083L17.8041 11.2725C17.8324 11.3 17.8616 11.325 17.8932 11.3492C18.1385 11.5342 18.4308 11.6469 18.7368 11.6744C19.0428 11.702 19.3505 11.6433 19.6249 11.505C19.9002 11.3686 20.1317 11.1578 20.2933 10.8965C20.4549 10.6352 20.54 10.3339 20.5391 10.0267V3.92833C20.5391 3.2975 20.1891 2.73 19.6249 2.44833ZM12.2057 12H4.70573C3.3274 12 2.20573 10.8783 2.20573 9.5V4.5C2.20573 3.12167 3.3274 2 4.70573 2H12.2057C13.5841 2 14.7057 3.12167 14.7057 4.5V9.5C14.7057 10.8783 13.5841 12 12.2057 12ZM16.3724 7.48583V6.495L18.8724 3.97167L18.8932 10.0033L16.3724 7.485V7.48583Z" fill="#BF2426"/>
</svg>
