<svg width="31" height="33" viewBox="0 0 31 33" fill="none" xmlns="http://www.w3.org/2000/svg">
<g clip-path="url(#clip0_35_278)">
<path d="M21.0299 3.8801C20.5257 3.70363 19.971 3.48975 19.4614 3.29458C18.5247 2.93675 18.6633 2.97221 17.7139 3.22008L17.6814 3.56066C17.5225 3.98143 17.5069 4.12521 17.1619 4.36641C16.838 4.59594 16.4424 4.70136 16.0473 4.6634C14.5347 4.52516 14.2777 2.52331 15.7566 2.05066C16.5273 1.80442 16.8075 2.2621 17.1676 2.25803C17.4888 2.25462 17.9558 1.95356 18.4966 1.96527C19.0891 1.97812 26.374 4.83646 27.0173 5.09279C27.9326 5.45776 28.6252 5.59455 28.6584 6.7882C28.6836 7.69089 28.6779 8.71815 28.6561 9.65727C28.2395 9.73699 27.8677 9.96928 27.6134 10.3087C27.3591 10.6481 27.2406 11.0702 27.2811 11.4923C27.3215 11.9145 27.5181 12.3064 27.8322 12.5913C28.1464 12.8762 28.5556 13.0336 28.9797 13.0327C29.4038 13.0318 29.8123 12.8727 30.1253 12.5866C30.4383 12.3004 30.6332 11.9077 30.672 11.4854C30.7107 11.063 30.5905 10.6414 30.3348 10.3031C30.0791 9.96474 29.7063 9.73399 29.2894 9.65598V6.67435L31.0006 5.89658C30.9813 5.88617 30.8959 5.84112 30.8754 5.83152L30.1815 5.55714C29.8601 5.4332 29.5553 5.3052 29.2327 5.18077L23.4927 2.94505C22.2241 2.44979 20.9506 1.95291 19.6488 1.47587C19.0044 1.23939 18.3689 0.986791 17.7245 0.744937C17.406 0.625393 17.0676 0.51089 16.7486 0.391508C16.302 0.224146 16.2282 0.085897 15.7767 0.261392C13.2589 1.24247 10.6146 2.19379 8.10205 3.16202C7.51116 3.38972 0.894084 5.90211 0.490234 6.18723C0.503083 6.19553 0.524065 6.19049 0.530571 6.20886C0.537077 6.22724 0.561799 6.22513 0.570581 6.23L7.06633 8.67766C9.30173 9.52569 11.4773 10.275 13.7143 11.0881C14.4903 11.3703 14.2442 11.3283 15.3429 10.9388L26.9685 6.70265L27.5512 6.42501C27.3325 6.22659 24.7836 5.29609 24.3253 5.13345C23.2268 4.7431 22.1247 4.2389 21.0306 3.87977L21.0299 3.8801Z" fill="#1F5FC7"/>
<path d="M23.5587 29.8643C23.4266 29.5442 22.9305 28.9018 22.7209 28.6101L20.9661 29.5535C16.7456 31.5225 12.0282 30.7408 8.44497 27.8347C8.20475 27.6395 7.98143 27.3939 7.7656 27.187C7.17504 26.6207 6.40279 25.5968 5.9765 24.8691C4.81895 22.8922 4.28222 20.6924 4.44112 18.2657C4.58555 16.0632 5.32705 13.9273 6.61797 12.3077C6.98946 11.8417 6.94993 12.1117 6.95026 11.3212C6.95026 10.9546 7.06411 10.2707 6.90146 9.99746C6.58675 9.95046 6.45159 10.2488 6.05571 10.6562C5.47604 11.2518 4.55937 12.7268 4.23408 13.4228C2.38431 17.3687 2.46416 21.8854 4.72787 25.6375C6.79135 29.0571 9.75362 31.1455 13.7802 31.9335C16.4195 32.45 19.1963 32.005 21.6004 30.9719C22.0984 30.7579 23.2558 30.1683 23.5601 29.8645L23.5587 29.8643Z" fill="#1F5FC7"/>
<path d="M13.8265 27.971C13.1271 27.0662 12.4812 25.827 11.956 24.5575C11.3987 23.2106 11.1266 21.8088 10.941 20.2066L7.67896 20.1843C7.90015 22.1167 8.87944 23.9196 9.83743 24.9947C10.6181 25.8715 11.594 26.831 12.6818 27.404C12.9814 27.5619 13.5926 27.9207 13.8265 27.9706V27.971Z" fill="#1F5FC7"/>
<path d="M15.5249 27.9927L15.5384 20.1954L12.3513 20.1882C12.514 22.3444 13.3087 24.625 14.3519 26.4034C14.5841 26.7989 15.2646 27.8317 15.5249 27.9927Z" fill="#1F5FC7"/>
<path d="M16.9003 27.9523L17.9939 26.4016C19.0114 24.7787 19.9027 22.1437 20.005 20.1863H16.8668C16.9083 21.5352 16.7669 27.2797 16.9003 27.9523Z" fill="#1F5FC7"/>
<path d="M7.61454 18.9547H10.9312C10.9506 16.6145 11.3149 16.4935 11.5167 14.9834C10.4285 14.7628 9.1117 14.1877 8.8095 14.1293C8.70899 14.4606 8.49055 14.7723 8.34499 15.1215C8.19714 15.4754 8.08361 15.8607 7.96781 16.2514C7.71603 17.1005 7.60527 18.0242 7.61373 18.9558L7.61454 18.9547Z" fill="#1F5FC7"/>
<path d="M14.27 12.6701L8.36711 10.5231C8.29539 12.2169 8.20056 12.3753 9.26736 12.8815C10.8048 13.6113 12.8708 14.0168 14.5947 14.1322C15.7384 14.2088 17.8742 14.1147 17.8742 14.1147C17.8742 14.1147 22.347 13.3034 23.4628 12.5403C23.7864 12.3186 23.8954 12.3522 23.9019 11.829C23.4057 11.9721 21.2579 12.9583 20.9136 12.7699C20.284 12.2527 21.8867 11.8731 22.3239 11.7044C24.0945 11.0221 23.9152 11.3035 23.9146 10.5444C23.4151 10.6672 21.6745 11.3482 21.0195 11.6072C20.5564 11.7903 20.2199 11.8924 20.3105 11.2354C20.6566 10.9945 23.4588 9.94005 23.9286 9.81547L23.9173 9.33582L16.7751 11.8339C16.214 12.031 14.7518 12.647 14.27 12.6701Z" fill="#1F5FC7"/>
<path d="M12.3322 18.9391L15.5275 18.9562C15.5428 18.3007 15.6217 15.9431 15.5036 15.4689L12.8926 15.2537C12.5403 16.5477 12.3642 17.4871 12.3317 18.9391H12.3322Z" fill="#1F5FC7"/>
<path d="M16.8912 15.476L16.8704 18.9404L20.045 18.9599C20.0174 17.6534 19.8468 16.3475 19.427 15.2176L16.8912 15.476Z" fill="#1F5FC7"/>
<path d="M20.8534 28.5534C22.0732 28.2118 23.1286 27.2644 23.9723 26.4598C24.3478 26.102 25.2689 24.7733 25.5322 24.2781C26.7506 21.9862 27.185 19.4543 26.7288 16.7912C26.5118 15.525 25.7079 13.291 25.0334 12.4869C24.7457 13.0655 24.6492 12.796 24.9334 13.4052C25.4838 14.5852 25.804 15.1023 26.0924 16.5989C26.7592 20.0654 25.9089 23.0477 23.8789 25.7016C23.6807 25.9608 23.4809 26.2256 23.2077 26.48C22.6882 26.963 22.4732 27.303 21.7113 27.8833L21.0933 28.3494C21.0886 28.3528 20.9921 28.4244 20.9881 28.4278C20.9775 28.4364 20.9637 28.4483 20.9537 28.4569L20.8534 28.5534Z" fill="#1F5FC7"/>
<path d="M11.662 28.6487C6.13404 25.2297 4.26557 18.9866 7.51149 13.1939C7.4344 13.0372 7.34592 12.8631 7.20246 12.7397C6.47462 13.5864 5.71409 15.8028 5.48444 17.036C4.7631 20.9094 6.44405 25.481 9.67078 27.6353C10.105 27.9253 11.0824 28.5399 11.6616 28.6487H11.662Z" fill="#1F5FC7"/>
<path d="M21.8401 20.1736L21.4137 20.198C21.3115 21.719 20.9596 23.1132 20.4245 24.4835C20.2781 24.8594 19.9866 25.3986 19.8959 25.7346L18.8488 27.4368C18.6074 27.7908 18.5464 27.7368 18.4377 27.9786C19.5135 27.6613 20.7712 26.6478 21.5661 25.9275C23.0032 24.6253 24.4011 22.0829 24.5644 20.1861L21.8401 20.1734V20.1736Z" fill="#1F5FC7"/>
<path d="M21.4785 18.8719C21.6351 19.0238 21.6826 18.9482 22.1819 18.9467L24.5971 18.9705C24.7939 17.7331 24.0351 14.885 23.3901 14.0522C23.078 14.1074 22.4827 14.3557 22.134 14.4759C21.7465 14.6095 21.2679 14.7797 20.8297 14.8544L20.9761 15.334C20.9842 15.7184 21.231 16.5467 21.2998 17.0408C21.3637 17.5011 21.3907 18.5372 21.4787 18.8719H21.4785Z" fill="#1F5FC7"/>
<path d="M22.8929 9.14765C23.4401 9.15074 26.9698 7.73003 27.6045 7.44638L27.598 7.06205L23.9812 8.47381C23.6034 8.6132 22.9413 8.69956 22.8929 9.14765Z" fill="#1F5FC7"/>
</g>
<defs>
<clipPath id="clip0_35_278">
<rect width="30.5104" height="31.9696" fill="white" transform="translate(0.489502 0.179688)"/>
</clipPath>
</defs>
</svg>
