<svg width="1503" height="240" viewBox="0 0 1503 240" fill="none" xmlns="http://www.w3.org/2000/svg">
<g clip-path="url(#clip0_822_33)">
<path d="M141.142 43.2649C137.972 42.1554 134.484 40.8107 131.28 39.5836C125.391 37.3339 126.262 37.5568 120.293 39.1153L120.089 41.2566C119.09 43.902 118.991 44.806 116.823 46.3225C114.786 47.7656 112.299 48.4284 109.815 48.1897C100.305 47.3205 98.689 34.7345 107.987 31.7629C112.832 30.2147 114.594 33.0922 116.858 33.0667C118.878 33.0452 121.814 31.1524 125.214 31.226C128.939 31.3068 174.741 49.2778 178.785 50.8894C184.54 53.1841 188.895 54.044 189.103 61.5488C189.262 67.2242 189.226 73.6828 189.089 79.5873C186.47 80.0885 184.132 81.5489 182.533 83.6828C180.935 85.8167 180.189 88.4704 180.444 91.1247C180.698 93.779 181.934 96.2427 183.909 98.0339C185.884 99.8252 188.457 100.815 191.123 100.809C193.79 100.804 196.358 99.8036 198.326 98.0043C200.294 96.205 201.52 93.7362 201.763 91.0809C202.007 88.4256 201.251 85.7749 199.643 83.6477C198.035 81.5204 195.692 80.0696 193.071 79.5791V60.833L203.829 55.943C203.708 55.8775 203.171 55.5943 203.042 55.534L198.68 53.8088C196.659 53.0296 194.743 52.2248 192.714 51.4426L156.626 37.3861C148.65 34.2723 140.643 31.1483 132.458 28.1491C128.406 26.6622 124.411 25.0741 120.36 23.5535C118.357 22.8019 116.229 22.082 114.224 21.3314C111.416 20.2792 110.952 19.41 108.113 20.5133C92.2835 26.6816 75.6582 32.6628 59.8613 38.7502C56.1462 40.1818 14.5432 55.9778 12.0042 57.7704C12.0849 57.8225 12.2168 57.7908 12.2578 57.9064C12.2987 58.0219 12.4541 58.0086 12.5093 58.0393L53.3495 73.4282C67.4039 78.76 81.0821 83.4711 95.1467 88.583C100.026 90.3572 98.4783 90.0933 105.386 87.6442L178.479 61.0109L182.142 59.2654C180.767 58.0178 164.742 52.1676 161.86 51.145C154.954 48.6908 148.025 45.5208 141.146 43.2629L141.142 43.2649Z" fill="#348CD4"/>
<path d="M157.04 206.634C156.21 204.621 153.091 200.582 151.773 198.748L140.74 204.679C114.205 217.059 84.5456 212.144 62.0169 193.873C60.5066 192.646 59.1025 191.102 57.7456 189.801C54.0326 186.24 49.1773 179.803 46.4971 175.228C39.2193 162.798 35.8448 148.968 36.8439 133.711C37.7519 119.863 42.4139 106.434 50.5302 96.2514C52.8658 93.3217 52.6173 95.0191 52.6193 90.0493C52.6193 87.7444 53.3351 83.4445 52.3126 81.7265C50.3339 81.431 49.4841 83.3064 46.9951 85.868C43.3506 89.6127 37.5873 98.8865 35.5421 103.262C23.9122 128.071 24.4143 156.468 38.6467 180.059C51.6203 201.559 70.2447 214.689 95.5609 219.643C112.154 222.891 129.613 220.093 144.728 213.597C147.859 212.252 155.136 208.545 157.049 206.635L157.04 206.634Z" fill="#348CD4"/>
<path d="M95.8513 194.73C91.4541 189.041 87.3934 181.25 84.0915 173.269C80.5871 164.801 78.8763 155.987 77.7095 145.913L57.2005 145.773C58.5912 157.923 64.7482 169.258 70.7713 176.017C75.6797 181.53 81.8152 187.562 88.6543 191.165C90.5379 192.158 94.3808 194.414 95.8513 194.728V194.73Z" fill="#348CD4"/>
<path d="M106.53 194.867L106.615 145.843L86.5775 145.798C87.6 159.354 92.5964 173.693 99.1553 184.874C100.616 187.361 104.894 193.854 106.53 194.867Z" fill="#348CD4"/>
<path d="M115.177 194.612L122.053 184.863C128.45 174.659 134.054 158.092 134.697 145.786H114.967C115.227 154.267 114.339 190.384 115.177 194.612Z" fill="#348CD4"/>
<path d="M56.7966 138.043H77.6492C77.7709 123.329 80.0615 122.569 81.3305 113.074C74.4884 111.687 66.2095 108.071 64.3095 107.704C63.6776 109.787 62.3042 111.747 61.389 113.942C60.4595 116.167 59.7457 118.59 59.0176 121.046C57.4347 126.385 56.7383 132.192 56.7915 138.05L56.7966 138.043Z" fill="#348CD4"/>
<path d="M98.6409 98.5297L61.5281 85.0315C61.0771 95.6808 60.481 96.6768 67.1881 99.859C76.8546 104.447 89.8436 106.997 100.682 107.723C107.873 108.204 114.615 107.384 121.301 107.612C129.511 106.817 149.423 102.512 156.438 97.7137C158.473 96.3199 159.158 96.5316 159.199 93.2419C156.079 94.1418 142.575 100.342 140.411 99.1576C136.452 95.9057 146.529 93.519 149.277 92.4586C160.409 88.1688 159.282 89.9379 159.278 85.1655C156.138 85.9375 145.194 90.2191 141.076 91.8471C138.165 92.9985 136.049 93.6407 136.619 89.5094C138.795 87.995 156.413 81.3656 159.366 80.5823L159.296 77.5666L114.391 93.2725C110.863 94.5119 101.672 98.3794 98.6429 98.5246L98.6409 98.5297Z" fill="#348CD4"/>
<path d="M86.4568 137.944L106.547 138.052C106.643 133.931 107.139 119.108 106.396 116.126L89.9806 114.773C87.7657 122.909 86.6583 128.816 86.4537 137.944H86.4568Z" fill="#348CD4"/>
<path d="M115.121 116.171L114.99 137.953L134.95 138.075C134.776 129.861 133.703 121.65 131.064 114.546L115.121 116.171Z" fill="#348CD4"/>
<path d="M140.031 198.392C147.701 196.244 154.336 190.288 159.64 185.229C162.002 182.979 167.792 174.626 169.448 171.512C177.108 157.103 179.84 141.184 176.971 124.44C175.607 116.479 170.552 102.434 166.312 97.3783C164.503 101.016 163.896 99.3212 165.683 103.152C169.143 110.571 171.157 113.821 172.97 123.231C177.162 145.026 171.816 163.776 159.053 180.462C157.807 182.092 156.551 183.756 154.833 185.356C151.567 188.393 150.215 190.53 145.425 194.179L141.54 197.109C141.51 197.131 140.904 197.581 140.878 197.602C140.811 197.656 140.725 197.731 140.662 197.785L140.031 198.392Z" fill="#348CD4"/>
<path d="M82.2437 198.991C47.488 177.495 35.7405 138.243 56.1483 101.823C55.6636 100.838 55.1073 99.7435 54.2053 98.9673C49.6293 104.291 44.8476 118.226 43.4037 125.979C38.8686 150.332 49.437 179.075 69.7241 192.619C72.4545 194.442 78.5992 198.307 82.2406 198.991H82.2437Z" fill="#348CD4"/>
<path d="M146.235 145.706L143.554 145.859C142.912 155.422 140.699 164.188 137.335 172.803C136.414 175.167 134.582 178.556 134.011 180.669L127.428 191.372C125.91 193.597 125.527 193.257 124.844 194.778C131.607 192.783 139.515 186.411 144.512 181.882C153.548 173.695 162.337 157.71 163.364 145.785L146.235 145.705V145.706Z" fill="#348CD4"/>
<path d="M143.962 137.522C144.947 138.477 145.245 138.002 148.385 137.992L163.569 138.142C164.806 130.362 160.036 112.455 155.981 107.22C154.018 107.566 150.275 109.128 148.083 109.883C145.647 110.723 142.638 111.794 139.883 112.263L140.803 115.279C140.854 117.695 142.406 122.903 142.838 126.01C143.24 128.904 143.41 135.418 143.963 137.522H143.962Z" fill="#348CD4"/>
<path d="M152.854 76.3835C156.294 76.403 178.487 67.4706 182.477 65.6872L182.436 63.2709L159.697 72.1469C157.321 73.0233 153.158 73.5663 152.854 76.3835Z" fill="#348CD4"/>
</g>
<path d="M322.98 99.7141C322.589 95.7728 320.911 92.711 317.947 90.5286C314.983 88.3462 310.96 87.255 305.879 87.255C302.426 87.255 299.511 87.7436 297.133 88.7208C294.755 89.6654 292.931 90.9846 291.661 92.6784C290.423 94.3722 289.804 96.294 289.804 98.4438C289.739 100.235 290.114 101.799 290.928 103.134C291.775 104.47 292.931 105.626 294.397 106.603C295.863 107.548 297.557 108.379 299.478 109.095C301.4 109.779 303.452 110.365 305.635 110.854L314.625 113.004C318.99 113.981 322.996 115.284 326.644 116.913C330.292 118.541 333.452 120.545 336.123 122.922C338.794 125.3 340.862 128.101 342.328 131.326C343.826 134.551 344.592 138.248 344.624 142.417C344.592 148.541 343.028 153.85 339.934 158.345C336.872 162.808 332.442 166.277 326.644 168.752C320.879 171.195 313.924 172.417 305.781 172.417C297.703 172.417 290.667 171.179 284.674 168.704C278.713 166.228 274.055 162.564 270.7 157.71C267.378 152.824 265.635 146.782 265.472 139.583H285.944C286.172 142.938 287.133 145.74 288.827 147.987C290.553 150.202 292.85 151.88 295.716 153.02C298.615 154.127 301.889 154.681 305.537 154.681C309.12 154.681 312.231 154.16 314.869 153.117C317.54 152.075 319.608 150.626 321.074 148.769C322.54 146.912 323.273 144.779 323.273 142.368C323.273 140.121 322.605 138.232 321.27 136.701C319.967 135.17 318.045 133.867 315.504 132.792C312.996 131.717 309.918 130.74 306.27 129.86L295.374 127.124C286.938 125.072 280.277 121.864 275.391 117.499C270.505 113.134 268.078 107.255 268.111 99.8607C268.078 93.8022 269.69 88.5091 272.948 83.9814C276.238 79.4538 280.749 75.9196 286.482 73.3789C292.215 70.8382 298.729 69.5679 306.026 69.5679C313.452 69.5679 319.934 70.8382 325.472 73.3789C331.042 75.9196 335.374 79.4538 338.468 83.9814C341.563 88.5091 343.159 93.7533 343.256 99.7141H322.98ZM355.044 88.3788V70.936H437.225V88.3788H406.59V171H385.679V88.3788H355.044ZM512.566 70.936H533.723V135.919C533.723 143.215 531.98 149.6 528.495 155.072C525.042 160.544 520.205 164.811 513.983 167.873C507.762 170.902 500.514 172.417 492.241 172.417C483.935 172.417 476.671 170.902 470.45 167.873C464.228 164.811 459.391 160.544 455.938 155.072C452.486 149.6 450.759 143.215 450.759 135.919V70.936H471.915V134.111C471.915 137.922 472.746 141.31 474.407 144.274C476.101 147.238 478.479 149.567 481.541 151.261C484.603 152.955 488.169 153.801 492.241 153.801C496.345 153.801 499.912 152.955 502.941 151.261C506.003 149.567 508.364 147.238 510.026 144.274C511.72 141.31 512.566 137.922 512.566 134.111V70.936ZM586.601 171H551.129V70.936H586.894C596.959 70.936 605.623 72.9392 612.887 76.9457C620.151 80.9196 625.737 86.6361 629.646 94.0953C633.587 101.555 635.558 110.48 635.558 120.87C635.558 131.294 633.587 140.251 629.646 147.743C625.737 155.235 620.118 160.984 612.789 164.99C605.493 168.997 596.763 171 586.601 171ZM572.285 152.873H585.721C591.975 152.873 597.236 151.766 601.503 149.551C605.802 147.303 609.027 143.834 611.177 139.144C613.359 134.421 614.45 128.329 614.45 120.87C614.45 113.476 613.359 107.434 611.177 102.743C609.027 98.0529 605.819 94.6002 601.552 92.3852C597.285 90.1703 592.024 89.0628 585.77 89.0628H572.285V152.873ZM639.32 70.936H663.017L685.834 114.03H686.811L709.629 70.936H733.325L696.827 135.626V171H675.818V135.626L639.32 70.936ZM793.972 171H771.301L805.845 70.936H833.108L867.603 171H844.932L819.868 93.8022H819.086L793.972 171ZM792.555 131.668H846.105V148.183H792.555V131.668ZM879.647 171V70.936H919.712C927.073 70.936 933.213 72.0272 938.132 74.2095C943.05 76.3919 946.747 79.4212 949.223 83.2974C951.698 87.141 952.936 91.5709 952.936 96.5871C952.936 100.496 952.154 103.932 950.591 106.896C949.027 109.828 946.878 112.238 944.141 114.128C941.438 115.984 938.343 117.304 934.858 118.085V119.062C938.669 119.225 942.236 120.3 945.558 122.287C948.913 124.274 951.633 127.059 953.718 130.642C955.802 134.193 956.845 138.427 956.845 143.346C956.845 148.655 955.526 153.394 952.887 157.564C950.281 161.7 946.421 164.974 941.308 167.384C936.194 169.795 929.891 171 922.399 171H879.647ZM900.803 153.704H918.05C923.946 153.704 928.246 152.58 930.949 150.332C933.653 148.052 935.005 145.023 935.005 141.245C935.005 138.476 934.337 136.033 933.001 133.916C931.666 131.798 929.76 130.137 927.285 128.932C924.842 127.727 921.927 127.124 918.539 127.124H900.803V153.704ZM900.803 112.808H916.487C919.386 112.808 921.959 112.304 924.207 111.294C926.487 110.251 928.278 108.786 929.581 106.896C930.917 105.007 931.585 102.743 931.585 100.105C931.585 96.4894 930.298 93.5742 927.725 91.3592C925.184 89.1442 921.568 88.0367 916.878 88.0367H900.803V112.808ZM970.611 171V70.936H1010.09C1017.65 70.936 1024.1 72.2877 1029.44 74.9913C1034.81 77.6623 1038.9 81.457 1041.7 86.3755C1044.54 91.2615 1045.95 97.0106 1045.95 103.623C1045.95 110.268 1044.52 115.984 1041.65 120.773C1038.79 125.528 1034.63 129.176 1029.19 131.717C1023.79 134.258 1017.24 135.528 1009.55 135.528H983.119V118.525H1006.13C1010.17 118.525 1013.53 117.971 1016.2 116.864C1018.87 115.756 1020.85 114.095 1022.16 111.88C1023.49 109.665 1024.16 106.913 1024.16 103.623C1024.16 100.3 1023.49 97.4992 1022.16 95.2191C1020.85 92.939 1018.85 91.2126 1016.15 90.04C1013.48 88.8348 1010.11 88.2322 1006.03 88.2322H991.767V171H970.611ZM1024.65 125.463L1049.52 171H1026.16L1001.83 125.463H1024.65ZM1152.86 120.968C1152.86 131.88 1150.79 141.163 1146.65 148.818C1142.55 156.472 1136.94 162.319 1129.84 166.358C1122.78 170.365 1114.83 172.368 1106 172.368C1097.11 172.368 1089.13 170.349 1082.06 166.309C1074.99 162.27 1069.4 156.424 1065.3 148.769C1061.2 141.114 1059.14 131.847 1059.14 120.968C1059.14 110.056 1061.2 100.773 1065.3 93.1181C1069.4 85.4635 1074.99 79.6329 1082.06 75.6265C1089.13 71.5874 1097.11 69.5679 1106 69.5679C1114.83 69.5679 1122.78 71.5874 1129.84 75.6265C1136.94 79.6329 1142.55 85.4635 1146.65 93.1181C1150.79 100.773 1152.86 110.056 1152.86 120.968ZM1131.41 120.968C1131.41 113.9 1130.35 107.939 1128.23 103.085C1126.15 98.2321 1123.2 94.5513 1119.39 92.0432C1115.58 89.5351 1111.11 88.2811 1106 88.2811C1100.89 88.2811 1096.42 89.5351 1092.61 92.0432C1088.8 94.5513 1085.84 98.2321 1083.72 103.085C1081.64 107.939 1080.59 113.9 1080.59 120.968C1080.59 128.036 1081.64 133.997 1083.72 138.851C1085.84 143.704 1088.8 147.385 1092.61 149.893C1096.42 152.401 1100.89 153.655 1106 153.655C1111.11 153.655 1115.58 152.401 1119.39 149.893C1123.2 147.385 1126.15 143.704 1128.23 138.851C1130.35 133.997 1131.41 128.036 1131.41 120.968ZM1180.13 171H1157.46L1192.01 70.936H1219.27L1253.76 171H1231.09L1206.03 93.8022H1205.25L1180.13 171ZM1178.72 131.668H1232.27V148.183H1178.72V131.668ZM1301.28 171H1265.81V70.936H1301.57C1311.64 70.936 1320.3 72.9392 1327.57 76.9457C1334.83 80.9196 1340.42 86.6361 1344.32 94.0953C1348.27 101.555 1350.24 110.48 1350.24 120.87C1350.24 131.294 1348.27 140.251 1344.32 147.743C1340.42 155.235 1334.8 160.984 1327.47 164.99C1320.17 168.997 1311.44 171 1301.28 171ZM1286.96 152.873H1300.4C1306.65 152.873 1311.91 151.766 1316.18 149.551C1320.48 147.303 1323.71 143.834 1325.86 139.144C1328.04 134.421 1329.13 128.329 1329.13 120.87C1329.13 113.476 1328.04 107.434 1325.86 102.743C1323.71 98.0529 1320.5 94.6002 1316.23 92.3852C1311.96 90.1703 1306.7 89.0628 1300.45 89.0628H1286.96V152.873Z" fill="black"/>
<defs>
<clipPath id="clip0_822_33">
<rect width="191.825" height="201" fill="white" transform="translate(12 20)"/>
</clipPath>
</defs>
</svg>
